<?xml version="1.0" encoding="UTF-8" standalone="no"?>
<!-- Created with Inkscape (http://www.inkscape.org/) -->
<svg
   xmlns:dc="http://purl.org/dc/elements/1.1/"
   xmlns:cc="http://creativecommons.org/ns#"
   xmlns:rdf="http://www.w3.org/1999/02/22-rdf-syntax-ns#"
   xmlns:svg="http://www.w3.org/2000/svg"
   xmlns="http://www.w3.org/2000/svg"
   xmlns:sodipodi="http://sodipodi.sourceforge.net/DTD/sodipodi-0.dtd"
   xmlns:inkscape="http://www.inkscape.org/namespaces/inkscape"
   width="744.09448819"
   height="1052.3622047"
   id="svg2606"
   sodipodi:version="0.32"
   inkscape:version="0.46"
   sodipodi:docname="chpt4-2.svg"
   inkscape:output_extension="org.inkscape.output.svg.inkscape">
  <sodipodi:namedview
     id="base"
     pagecolor="#ffffff"
     bordercolor="#666666"
     borderopacity="1.0"
     gridtolerance="10000"
     guidetolerance="10"
     objecttolerance="10"
     inkscape:pageopacity="0.0"
     inkscape:pageshadow="2"
     inkscape:zoom="0.7"
     inkscape:cx="763.3534"
     inkscape:cy="704.43021"
     inkscape:document-units="px"
     inkscape:current-layer="layer1"
     showgrid="false"
     inkscape:window-width="1059"
     inkscape:window-height="926"
     inkscape:window-x="123"
     inkscape:window-y="40" />
  <defs
     id="defs2608">
    <marker
       style="overflow:visible"
       id="EmptyTriangleInL"
       refX="0.0"
       refY="0.0"
       orient="auto"
       inkscape:stockid="EmptyTriangleInL">
      <path
         transform="scale(-0.8) translate(-6,0)"
         style="fill-rule:evenodd;fill:#FFFFFF;stroke:#000000;stroke-width:1.0pt;marker-start:none"
         d="M 5.77,0.0 L -2.88,5.0 L -2.88,-5.0 L 5.77,0.0 z "
         id="path5055" />
    </marker>
    <marker
       style="overflow:visible;"
       id="Arrow2Send"
       refX="0.0"
       refY="0.0"
       orient="auto"
       inkscape:stockid="Arrow2Send">
      <path
         transform="scale(0.3) rotate(180) translate(-2.3,0)"
         d="M 8.7185878,4.0337352 L -2.2072895,0.016013256 L 8.7185884,-4.0017078 C 6.9730900,-1.6296469 6.9831476,1.6157441 8.7185878,4.0337352 z "
         style="font-size:12.0;fill-rule:evenodd;stroke-width:0.62500000;stroke-linejoin:round;"
         id="path4936" />
    </marker>
    <marker
       style="overflow:visible;"
       id="Arrow1Send"
       refX="0.0"
       refY="0.0"
       orient="auto"
       inkscape:stockid="Arrow1Send">
      <path
         transform="scale(0.2) rotate(180) translate(6,0)"
         style="fill-rule:evenodd;stroke:#000000;stroke-width:1.0pt;marker-start:none;"
         d="M 0.0,0.0 L 5.0,-5.0 L -12.5,0.0 L 5.0,5.0 L 0.0,0.0 z "
         id="path4918" />
    </marker>
    <marker
       style="overflow:visible;"
       id="Arrow2MendN"
       refX="0.0"
       refY="0.0"
       orient="auto"
       inkscape:stockid="Arrow2MendN">
      <path
         transform="scale(0.6) rotate(180) translate(0,0)"
         d="M 8.7185878,4.0337352 L -2.2072895,0.016013256 L 8.7185884,-4.0017078 C 6.9730900,-1.6296469 6.9831476,1.6157441 8.7185878,4.0337352 z "
         style="stroke-linejoin:round;font-size:12.0;fill-rule:evenodd;stroke:#00a0a0;stroke-width:0.62500000;fill:#00a0a0"
         id="path14245" />
    </marker>
    <marker
       inkscape:stockid="Arrow2Mstarta"
       orient="auto"
       refY="0.0"
       refX="0.0"
       id="Arrow2Mstarta"
       style="overflow:visible">
      <path
         id="path14242"
         style="stroke-linejoin:round;font-size:12.0;fill-rule:evenodd;stroke:#00a0a0;stroke-width:0.62500000;fill:#00a0a0"
         d="M 8.7185878,4.0337352 L -2.2072895,0.016013256 L 8.7185884,-4.0017078 C 6.9730900,-1.6296469 6.9831476,1.6157441 8.7185878,4.0337352 z "
         transform="scale(0.6) translate(0,0)" />
    </marker>
    <marker
       style="overflow:visible;"
       id="Arrow2Mendq"
       refX="0.0"
       refY="0.0"
       orient="auto"
       inkscape:stockid="Arrow2Mendq">
      <path
         transform="scale(0.6) rotate(180) translate(0,0)"
         d="M 8.7185878,4.0337352 L -2.2072895,0.016013256 L 8.7185884,-4.0017078 C 6.9730900,-1.6296469 6.9831476,1.6157441 8.7185878,4.0337352 z "
         style="stroke-linejoin:round;font-size:12.0;fill-rule:evenodd;stroke:#00a0a0;stroke-width:0.62500000;fill:#00a0a0"
         id="path14257" />
    </marker>
    <marker
       inkscape:stockid="Arrow2Mstartf"
       orient="auto"
       refY="0.0"
       refX="0.0"
       id="Arrow2Mstartf"
       style="overflow:visible">
      <path
         id="path14254"
         style="stroke-linejoin:round;font-size:12.0;fill-rule:evenodd;stroke:#00a0a0;stroke-width:0.62500000;fill:#00a0a0"
         d="M 8.7185878,4.0337352 L -2.2072895,0.016013256 L 8.7185884,-4.0017078 C 6.9730900,-1.6296469 6.9831476,1.6157441 8.7185878,4.0337352 z "
         transform="scale(0.6) translate(0,0)" />
    </marker>
    <marker
       style="overflow:visible;"
       id="Arrow2Mendp"
       refX="0.0"
       refY="0.0"
       orient="auto"
       inkscape:stockid="Arrow2Mendp">
      <path
         transform="scale(0.6) rotate(180) translate(0,0)"
         d="M 8.7185878,4.0337352 L -2.2072895,0.016013256 L 8.7185884,-4.0017078 C 6.9730900,-1.6296469 6.9831476,1.6157441 8.7185878,4.0337352 z "
         style="stroke-linejoin:round;font-size:12.0;fill-rule:evenodd;stroke:#fd0000;stroke-width:0.62500000;fill:#fd0000"
         id="path6564" />
    </marker>
    <marker
       style="overflow:visible;"
       id="Arrow1Mend"
       refX="0.0"
       refY="0.0"
       orient="auto"
       inkscape:stockid="Arrow1Mend">
      <path
         transform="scale(0.4) rotate(180) translate(10,0)"
         style="fill-rule:evenodd;stroke:#000000;stroke-width:1.0pt;marker-start:none;"
         d="M 0.0,0.0 L 5.0,-5.0 L -12.5,0.0 L 5.0,5.0 L 0.0,0.0 z "
         id="path3167" />
    </marker>
    <inkscape:perspective
       id="perspective2614"
       inkscape:persp3d-origin="372.04724 : 350.78739 : 1"
       inkscape:vp_z="744.09448 : 526.18109 : 1"
       inkscape:vp_y="0 : 1000 : 0"
       inkscape:vp_x="0 : 526.18109 : 1"
       sodipodi:type="inkscape:persp3d" />
    <marker
       style="overflow:visible;"
       id="Arrow2Sendv"
       refX="0.0"
       refY="0.0"
       orient="auto"
       inkscape:stockid="Arrow2Sendv">
      <path
         transform="scale(0.3) rotate(180) translate(-2.3,0)"
         d="M 8.7185878,4.0337352 L -2.2072895,0.016013256 L 8.7185884,-4.0017078 C 6.9730900,-1.6296469 6.9831476,1.6157441 8.7185878,4.0337352 z "
         style="stroke-linejoin:round;font-size:12.0;fill-rule:evenodd;stroke:#fd0000;stroke-width:0.62500000;fill:#fd0000"
         id="path4547" />
    </marker>
  </defs>
  <metadata
     id="metadata2611">
    <rdf:RDF>
      <cc:Work
         rdf:about="">
        <dc:format>image/svg+xml</dc:format>
        <dc:type
           rdf:resource="http://purl.org/dc/dcmitype/StillImage" />
      </cc:Work>
    </rdf:RDF>
  </metadata>
  <g
     id="layer1"
     inkscape:groupmode="layer"
     inkscape:label="Layer 1">
    <g
       id="g10078"
       inkscape:export-filename="/home/dhoshu/study/phys/memo/gravity/tm/ex4-3.png"
       inkscape:export-xdpi="200"
       inkscape:export-ydpi="200"
       transform="translate(-165.66502,175.76654)">
      <rect
         style="opacity:0.3;fill:#f0c864;fill-opacity:1;fill-rule:nonzero;stroke:none;stroke-width:3;stroke-linecap:round;stroke-linejoin:round;stroke-miterlimit:4;stroke-dasharray:none;stroke-dashoffset:0;stroke-opacity:1"
         id="rect4345"
         width="47.477169"
         height="257.08383"
         x="324.78436"
         y="178.58023" />
      <rect
         style="opacity:1;fill:#d8d8de;fill-opacity:1;fill-rule:nonzero;stroke:none;stroke-width:1.89451623;stroke-linecap:round;stroke-linejoin:miter;stroke-miterlimit:4;stroke-dasharray:none;stroke-dashoffset:0;stroke-opacity:1"
         id="rect4313"
         width="50.676888"
         height="290.85074"
         x="525.84033"
         y="238.52939"
         ry="0"
         transform="matrix(1,0,-0.5628462,0.8265617,0,0)" />
      <path
         style="fill:none;fill-rule:evenodd;stroke:#000000;stroke-width:1.5;stroke-linecap:butt;stroke-linejoin:miter;marker-end:url(#Arrow1Mend);stroke-miterlimit:4;stroke-dasharray:none;stroke-opacity:1"
         d="M 278.04878,436.4393 L 443.31681,193.91328 L 443.31681,193.91328"
         id="path2595" />
      <path
         style="fill:none;fill-rule:evenodd;stroke:#000000;stroke-width:1.5;stroke-linecap:butt;stroke-linejoin:miter;marker-end:url(#Arrow1Mend);stroke-miterlimit:4;stroke-dasharray:none;stroke-opacity:1"
         d="M 221.30471,438.95549 L 463.83073,273.68746 L 463.83073,273.68746"
         id="path2956" />
      <path
         style="fill:none;fill-rule:evenodd;stroke:#000000;stroke-width:1;stroke-linecap:butt;stroke-linejoin:miter;marker-end:none;stroke-miterlimit:4;stroke-dasharray:none;stroke-opacity:1"
         d="M 227.84542,438.34318 L 393.11345,195.81716 L 393.11345,195.81716"
         id="path2960" />
      <path
         style="fill:none;fill-rule:evenodd;stroke:#000000;stroke-width:1.35000002;stroke-linecap:butt;stroke-linejoin:miter;marker-end:url(#Arrow1Mend);stroke-miterlimit:4;stroke-dasharray:none;stroke-opacity:1"
         d="M 231.63559,368.5229 L 461.62386,368.5229 L 461.62386,368.5229"
         id="path4321" />
      <path
         id="path4323"
         d="M 324.24004,436.58442 L 324.24004,179.73805 L 324.24004,179.73805"
         style="fill:none;fill-rule:evenodd;stroke:#000000;stroke-width:1.35000002;stroke-linecap:butt;stroke-linejoin:miter;marker-end:url(#Arrow1Mend);stroke-miterlimit:4;stroke-dasharray:none;stroke-opacity:1" />
      <path
         style="opacity:0.49302326;fill:none;fill-rule:evenodd;stroke:#a000ff;stroke-width:3.046;stroke-linecap:round;stroke-linejoin:round;marker-mid:none;marker-end:none;stroke-miterlimit:4;stroke-dasharray:none;stroke-opacity:1"
         d="M 274.30284,370.52952 C 321.68717,370.52952 321.68717,370.52952 321.68717,370.52952"
         id="path4331" />
      <path
         id="path4335"
         d="M 325.29268,298.52952 C 372.67701,298.52952 372.67701,298.52952 372.67701,298.52952"
         style="opacity:0.49302326;fill:none;fill-rule:evenodd;stroke:#a000ff;stroke-width:3.046067;stroke-linecap:round;stroke-linejoin:round;stroke-miterlimit:4;stroke-dasharray:none;stroke-opacity:1" />
      <path
         style="fill:none;fill-rule:evenodd;stroke:#000000;stroke-width:1px;stroke-linecap:butt;stroke-linejoin:miter;stroke-opacity:1"
         d="M 371.75389,178.58023 L 372.25897,436.16913"
         id="path4341" />
      <path
         id="path9635"
         d="M 232.99906,432.00329 C 323.595,371.36032 323.595,371.36032 323.595,371.36032"
         style="opacity:0.49302326;fill:none;fill-rule:evenodd;stroke:#ff0046;stroke-width:4.63100004;stroke-linecap:round;stroke-linejoin:round;marker-mid:none;marker-end:none;stroke-miterlimit:4;stroke-dasharray:none;stroke-opacity:1" />
      <path
         style="opacity:0.49302326;fill:none;fill-rule:evenodd;stroke:#ff0046;stroke-width:4.63100004;stroke-linecap:round;stroke-linejoin:round;marker-mid:none;marker-end:none;stroke-miterlimit:4;stroke-dasharray:none;stroke-opacity:1"
         d="M 280.99906,360.00329 C 371.595,299.36032 371.595,299.36032 371.595,299.36032"
         id="path9637" />
      <path
         id="path9639"
         d="M 322.99906,298.00329 C 413.595,237.36032 413.595,237.36032 413.595,237.36032"
         style="opacity:0.49302326;fill:none;fill-rule:evenodd;stroke:#ff0046;stroke-width:4.63100004;stroke-linecap:round;stroke-linejoin:round;marker-mid:none;marker-end:none;stroke-miterlimit:4;stroke-dasharray:none;stroke-opacity:1" />
      <g
         transform="matrix(0.36,0,0,0.36,220.46664,257.85376)"
         id="g9705">
        <g
           style="font-style:normal;font-variant:normal;font-weight:normal;font-stretch:normal;letter-spacing:normal;word-spacing:normal;text-anchor:start;fill:none;fill-opacity:1;stroke:#000000;stroke-linecap:butt;stroke-linejoin:miter;stroke-miterlimit:10.43299961;stroke-dasharray:none;stroke-dashoffset:0;stroke-opacity:1"
           id="content"
           transform="matrix(1.0629921,0,0,-1.0629921,-186.02362,789.27165)"
           xml:space="preserve"
           stroke-miterlimit="10.433"
           fill-rule="even-odd"
           font-style="normal"
           font-variant="normal"
           font-weight="normal"
           font-stretch="normal"
           font-size-adjust="none"
           letter-spacing="normal"
           word-spacing="normal"><path
             style="fill:#000000;stroke-width:0"
             d="M 471.09,421.74 L 471.29,423.04 L 474.68,436.59 C 475.13,438.33 475.23,438.48 477.37,438.48 L 482.15,438.48 C 486.29,438.48 488.93,437.13 488.93,433.7 C 488.93,431.75 487.93,427.47 485.99,425.68 C 483.5,423.43 480.51,423.04 478.32,423.04 L 471.29,423.04 L 471.09,421.74 L 479.56,421.74 C 486.64,421.74 493.56,426.92 493.56,432.5 C 493.56,436.34 490.27,440.02 483.75,440.02 L 467.61,440.02 C 466.66,440.02 466.11,440.02 466.11,439.07 C 466.11,438.48 466.56,438.48 467.56,438.48 C 468.2,438.48 469.1,438.43 469.7,438.38 C 470.5,438.28 470.79,438.13 470.79,437.58 C 470.79,437.38 470.75,437.23 470.59,436.64 L 463.92,409.89 C 463.42,407.94 463.32,407.54 459.39,407.54 C 458.54,407.54 457.99,407.54 457.99,406.6 C 457.99,406 458.59,406 458.74,406 L 471.49,406 C 471.84,406 472.49,406 472.49,407 C 472.49,407.54 472.04,407.54 471.09,407.54 C 469.25,407.54 467.86,407.54 467.86,408.44 C 467.86,408.74 467.96,408.99 468,409.29 L 471.09,421.74 z"
             id="path9708" /><path
             style="fill:#000000;stroke-width:0"
             d="M 505.99,410.12 L 505.99,410.83 L 505.97,411.51 L 505.94,412.17 L 505.9,412.81 L 505.84,413.43 L 505.76,414.02 L 505.67,414.6 L 505.56,415.16 L 505.44,415.71 L 505.29,416.24 L 505.12,416.75 L 504.93,417.25 L 504.72,417.74 L 504.48,418.22 L 504.22,418.69 L 504.08,418.93 L 503.93,419.16 C 502.86,420.76 500.69,422.15 497.9,422.15 L 497.9,421.18 C 499.79,421.18 501.6,420.03 502.23,418 C 502.79,416.12 502.82,413.61 502.82,410.58 C 502.82,408 502.82,405.41 502.37,403.22 C 501.67,400.05 499.3,399.28 497.9,399.28 L 497.9,399.28 C 496.3,399.28 494.17,400.22 493.47,403.08 C 492.98,405.14 492.98,408 492.98,410.58 C 492.98,413.12 492.98,415.77 493.51,417.69 C 494.24,420.45 496.47,421.18 497.9,421.18 L 497.9,422.15 C 489.81,422.15 489.81,412.63 489.81,410.12 C 489.81,407.61 489.81,398.3 497.9,398.3 C 505.99,398.3 505.99,407.61 505.99,410.12 z"
             id="path9710" /></g>      </g>
      <g
         id="g9846"
         transform="matrix(0.36,0,0,0.36,269.97926,176.27806)">
        <g
           word-spacing="normal"
           letter-spacing="normal"
           font-size-adjust="none"
           font-stretch="normal"
           font-weight="normal"
           font-variant="normal"
           font-style="normal"
           fill-rule="even-odd"
           stroke-miterlimit="10.433"
           xml:space="preserve"
           transform="matrix(1.0629921,0,0,-1.0629921,-186.02362,789.27165)"
           id="g9848"
           style="font-style:normal;font-variant:normal;font-weight:normal;font-stretch:normal;letter-spacing:normal;word-spacing:normal;text-anchor:start;fill:none;fill-opacity:1;stroke:#000000;stroke-linecap:butt;stroke-linejoin:miter;stroke-miterlimit:10.43299961;stroke-dasharray:none;stroke-dashoffset:0;stroke-opacity:1"><path
             id="path9850"
             d="M 471.09,421.74 L 471.29,423.04 L 474.68,436.59 C 475.13,438.33 475.23,438.48 477.37,438.48 L 482.15,438.48 C 486.29,438.48 488.93,437.13 488.93,433.7 C 488.93,431.75 487.93,427.47 485.99,425.68 C 483.5,423.43 480.51,423.04 478.32,423.04 L 471.29,423.04 L 471.09,421.74 L 479.56,421.74 C 486.64,421.74 493.56,426.92 493.56,432.5 C 493.56,436.34 490.27,440.02 483.75,440.02 L 467.61,440.02 C 466.66,440.02 466.11,440.02 466.11,439.07 C 466.11,438.48 466.56,438.48 467.56,438.48 C 468.2,438.48 469.1,438.43 469.7,438.38 C 470.5,438.28 470.79,438.13 470.79,437.58 C 470.79,437.38 470.75,437.23 470.59,436.64 L 463.92,409.89 C 463.42,407.94 463.32,407.54 459.39,407.54 C 458.54,407.54 457.99,407.54 457.99,406.6 C 457.99,406 458.59,406 458.74,406 L 471.49,406 C 471.84,406 472.49,406 472.49,407 C 472.49,407.54 472.04,407.54 471.09,407.54 C 469.25,407.54 467.86,407.54 467.86,408.44 C 467.86,408.74 467.96,408.99 468,409.29 L 471.09,421.74 z"
             style="fill:#000000;stroke-width:0" /><path
             id="path9852"
             d="M 499.68,421.18 L 499.68,421.22 L 499.68,421.26 L 499.68,421.3 L 499.68,421.34 L 499.68,421.38 L 499.68,421.42 L 499.68,421.45 L 499.68,421.49 L 499.67,421.52 L 499.67,421.55 L 499.67,421.59 L 499.67,421.62 L 499.66,421.64 L 499.66,421.67 L 499.66,421.7 L 499.65,421.73 L 499.65,421.75 L 499.65,421.77 L 499.63,421.82 L 499.62,421.86 L 499.61,421.9 L 499.59,421.93 L 499.57,421.96 L 499.55,421.99 L 499.52,422.02 L 499.5,422.04 L 499.47,422.06 L 499.43,422.08 L 499.4,422.09 L 499.36,422.1 L 499.31,422.12 L 499.26,422.12 L 499.24,422.13 L 499.21,422.13 L 499.18,422.14 L 499.16,422.14 L 499.13,422.14 L 499.1,422.14 L 499.06,422.14 L 499.03,422.15 L 499,422.15 L 498.96,422.15 L 498.93,422.15 L 498.89,422.15 L 498.85,422.15 L 498.81,422.15 L 498.77,422.15 L 498.73,422.15 L 498.68,422.15 L 498.64,422.15 C 496.4,419.96 493.23,419.92 491.8,419.92 L 491.8,418.67 C 492.64,418.67 494.94,418.67 496.86,419.64 L 496.86,401.86 C 496.86,400.71 496.86,400.25 493.37,400.25 L 492.04,400.25 L 492.04,399 L 504.49,399 L 504.49,400.25 L 503.17,400.25 C 499.68,400.25 499.68,400.71 499.68,401.86 L 499.68,421.18 z"
             style="fill:#000000;stroke-width:0" /></g>      </g>
      <g
         transform="matrix(0.36,0,0,0.36,188.51757,174.27806)"
         id="g9996">
        <g
           style="font-style:normal;font-variant:normal;font-weight:normal;font-stretch:normal;letter-spacing:normal;word-spacing:normal;text-anchor:start;fill:none;fill-opacity:1;stroke:#000000;stroke-linecap:butt;stroke-linejoin:miter;stroke-miterlimit:10.43299961;stroke-dasharray:none;stroke-dashoffset:0;stroke-opacity:1"
           id="g9998"
           transform="matrix(1.0629921,0,0,-1.0629921,-186.02362,789.27165)"
           xml:space="preserve"
           stroke-miterlimit="10.433"
           fill-rule="even-odd"
           font-style="normal"
           font-variant="normal"
           font-weight="normal"
           font-stretch="normal"
           font-size-adjust="none"
           letter-spacing="normal"
           word-spacing="normal"><path
             style="fill:#000000;stroke-width:0"
             d="M 471.09,421.74 L 471.29,423.04 L 474.68,436.59 C 475.13,438.33 475.23,438.48 477.37,438.48 L 482.15,438.48 C 486.29,438.48 488.93,437.13 488.93,433.7 C 488.93,431.75 487.93,427.47 485.99,425.68 C 483.5,423.43 480.51,423.04 478.32,423.04 L 471.29,423.04 L 471.09,421.74 L 479.56,421.74 C 486.64,421.74 493.56,426.92 493.56,432.5 C 493.56,436.34 490.27,440.02 483.75,440.02 L 467.61,440.02 C 466.66,440.02 466.11,440.02 466.11,439.07 C 466.11,438.48 466.56,438.48 467.56,438.48 C 468.2,438.48 469.1,438.43 469.7,438.38 C 470.5,438.28 470.79,438.13 470.79,437.58 C 470.79,437.38 470.75,437.23 470.59,436.64 L 463.92,409.89 C 463.42,407.94 463.32,407.54 459.39,407.54 C 458.54,407.54 457.99,407.54 457.99,406.6 C 457.99,406 458.59,406 458.74,406 L 471.49,406 C 471.84,406 472.49,406 472.49,407 C 472.49,407.54 472.04,407.54 471.09,407.54 C 469.25,407.54 467.86,407.54 467.86,408.44 C 467.86,408.74 467.96,408.99 468,409.29 L 471.09,421.74 z"
             id="path10000" /><path
             style="fill:#000000;stroke-width:0"
             d="M 505.61,405.35 L 504.42,405.35 C 504.32,404.58 503.97,402.52 503.52,402.17 C 503.24,401.96 500.55,401.96 500.07,401.96 L 493.65,401.96 C 497.31,405.21 498.53,406.18 500.62,407.82 C 503.2,409.88 505.61,412.04 505.61,415.36 C 505.61,419.57 501.91,422.15 497.45,422.15 C 493.12,422.15 490.2,419.12 490.2,415.91 C 490.2,414.13 491.7,413.96 492.04,413.96 C 492.88,413.96 493.89,414.55 493.89,415.81 C 493.89,416.43 493.65,417.66 491.84,417.66 C 492.92,420.13 495.29,420.9 496.93,420.9 C 500.41,420.9 502.23,418.18 502.23,415.36 C 502.23,412.32 500.07,409.91 498.95,408.66 L 490.55,400.36 C 490.2,400.05 490.2,399.98 490.2,399 L 504.56,399 L 505.61,405.35 z"
             id="path10002" /></g>      </g>
    </g>
    <g
       id="g3327"
       transform="translate(-28.284271,105.05586)">
      <rect
         style="opacity:0.3;fill:#f0c864;fill-opacity:1;fill-rule:nonzero;stroke:none;stroke-width:3;stroke-linecap:round;stroke-linejoin:round;stroke-miterlimit:4;stroke-dasharray:none;stroke-dashoffset:0;stroke-opacity:1"
         id="rect10107"
         width="47.477169"
         height="257.08383"
         x="256.04077"
         y="568.00592" />
      <rect
         style="fill:#d8d8de;fill-opacity:1;fill-rule:nonzero;stroke:none;stroke-width:1.89451623;stroke-linecap:round;stroke-linejoin:miter;stroke-miterlimit:4;stroke-dasharray:none;stroke-dashoffset:0;stroke-opacity:1"
         id="rect10109"
         width="50.060806"
         height="530.01056"
         x="856.60229"
         y="681.61688"
         ry="0"
         transform="matrix(1,0,-0.6527426,0.7575798,0,0)" />
      <path
         style="fill:none;fill-rule:evenodd;stroke:#000000;stroke-width:1.35833859;stroke-linecap:butt;stroke-linejoin:miter;marker-end:none;stroke-miterlimit:4;stroke-dasharray:none;stroke-opacity:1"
         d="M 61.367768,925.33731 L 318.7663,623.21514 L 318.7663,623.21514"
         id="path10115" />
      <path
         style="fill:none;fill-rule:evenodd;stroke:#000000;stroke-width:1.29999995;stroke-linecap:butt;stroke-linejoin:miter;marker-end:url(#Arrow1Mend);stroke-miterlimit:4;stroke-dasharray:none;stroke-opacity:1"
         d="M 162.95298,757.9486 L 443.60894,757.9486 L 443.60894,757.9486"
         id="path10117" />
      <path
         id="path10119"
         d="M 255.49645,823.98981 L 255.49645,567.14344 L 255.49645,567.14344"
         style="fill:none;fill-rule:evenodd;stroke:#000000;stroke-width:1.29999995;stroke-linecap:butt;stroke-linejoin:miter;marker-end:url(#Arrow1Mend);stroke-miterlimit:4;stroke-dasharray:none;stroke-opacity:1" />
      <path
         style="opacity:0.49302326;fill:none;fill-rule:evenodd;stroke:#a000ff;stroke-width:3;stroke-linecap:round;stroke-linejoin:round;marker-mid:none;marker-end:none;stroke-miterlimit:4;stroke-dasharray:none;stroke-opacity:1"
         d="M 203.55926,759.95522 C 250.94359,759.95522 250.94359,759.95522 250.94359,759.95522"
         id="path10121" />
      <path
         id="path10123"
         d="M 254.53234,698.85497 C 302.87912,698.85497 302.87912,698.85497 302.87912,698.85497"
         style="opacity:0.49302326;fill:none;fill-rule:evenodd;stroke:#a000ff;stroke-width:2.81020331;stroke-linecap:round;stroke-linejoin:round;stroke-miterlimit:4;stroke-dasharray:none;stroke-opacity:1" />
      <path
         style="fill:none;fill-rule:evenodd;stroke:#000000;stroke-width:1px;stroke-linecap:butt;stroke-linejoin:miter;stroke-opacity:1"
         d="M 303.01031,568.00593 L 303.51538,825.59483"
         id="path10125" />
      <path
         id="path10127"
         d="M 69.762229,918.00626 C 252.75326,758.57677 252.75326,758.57677 252.75326,758.57677"
         style="opacity:0.49302326;fill:none;fill-rule:evenodd;stroke:#ff0046;stroke-width:3.7798264;stroke-linecap:round;stroke-linejoin:round;marker-mid:none;marker-end:none;stroke-miterlimit:4;stroke-dasharray:none;stroke-opacity:1" />
      <g
         transform="matrix(0.36,0,0,0.36,151.72306,647.27946)"
         id="g10133">
        <g
           style="font-style:normal;font-variant:normal;font-weight:normal;font-stretch:normal;letter-spacing:normal;word-spacing:normal;text-anchor:start;fill:none;fill-opacity:1;stroke:#000000;stroke-linecap:butt;stroke-linejoin:miter;stroke-miterlimit:10.43299961;stroke-dasharray:none;stroke-dashoffset:0;stroke-opacity:1"
           id="g10135"
           transform="matrix(1.0629921,0,0,-1.0629921,-186.02362,789.27165)"
           xml:space="preserve"
           stroke-miterlimit="10.433"
           fill-rule="even-odd"
           font-style="normal"
           font-variant="normal"
           font-weight="normal"
           font-stretch="normal"
           font-size-adjust="none"
           letter-spacing="normal"
           word-spacing="normal"><path
             style="fill:#000000;stroke-width:0"
             d="M 471.09,421.74 L 471.29,423.04 L 474.68,436.59 C 475.13,438.33 475.23,438.48 477.37,438.48 L 482.15,438.48 C 486.29,438.48 488.93,437.13 488.93,433.7 C 488.93,431.75 487.93,427.47 485.99,425.68 C 483.5,423.43 480.51,423.04 478.32,423.04 L 471.29,423.04 L 471.09,421.74 L 479.56,421.74 C 486.64,421.74 493.56,426.92 493.56,432.5 C 493.56,436.34 490.27,440.02 483.75,440.02 L 467.61,440.02 C 466.66,440.02 466.11,440.02 466.11,439.07 C 466.11,438.48 466.56,438.48 467.56,438.48 C 468.2,438.48 469.1,438.43 469.7,438.38 C 470.5,438.28 470.79,438.13 470.79,437.58 C 470.79,437.38 470.75,437.23 470.59,436.64 L 463.92,409.89 C 463.42,407.94 463.32,407.54 459.39,407.54 C 458.54,407.54 457.99,407.54 457.99,406.6 C 457.99,406 458.59,406 458.74,406 L 471.49,406 C 471.84,406 472.49,406 472.49,407 C 472.49,407.54 472.04,407.54 471.09,407.54 C 469.25,407.54 467.86,407.54 467.86,408.44 C 467.86,408.74 467.96,408.99 468,409.29 L 471.09,421.74 z"
             id="path10137" /><path
             style="fill:#000000;stroke-width:0"
             d="M 505.99,410.12 L 505.99,410.83 L 505.97,411.51 L 505.94,412.17 L 505.9,412.81 L 505.84,413.43 L 505.76,414.02 L 505.67,414.6 L 505.56,415.16 L 505.44,415.71 L 505.29,416.24 L 505.12,416.75 L 504.93,417.25 L 504.72,417.74 L 504.48,418.22 L 504.22,418.69 L 504.08,418.93 L 503.93,419.16 C 502.86,420.76 500.69,422.15 497.9,422.15 L 497.9,421.18 C 499.79,421.18 501.6,420.03 502.23,418 C 502.79,416.12 502.82,413.61 502.82,410.58 C 502.82,408 502.82,405.41 502.37,403.22 C 501.67,400.05 499.3,399.28 497.9,399.28 L 497.9,399.28 C 496.3,399.28 494.17,400.22 493.47,403.08 C 492.98,405.14 492.98,408 492.98,410.58 C 492.98,413.12 492.98,415.77 493.51,417.69 C 494.24,420.45 496.47,421.18 497.9,421.18 L 497.9,422.15 C 489.81,422.15 489.81,412.63 489.81,410.12 C 489.81,407.61 489.81,398.3 497.9,398.3 C 505.99,398.3 505.99,407.61 505.99,410.12 z"
             id="path10139" /></g>      </g>
      <g
         id="g10141"
         transform="matrix(0.36,0,0,0.36,201.23568,565.70376)">
        <g
           word-spacing="normal"
           letter-spacing="normal"
           font-size-adjust="none"
           font-stretch="normal"
           font-weight="normal"
           font-variant="normal"
           font-style="normal"
           fill-rule="even-odd"
           stroke-miterlimit="10.433"
           xml:space="preserve"
           transform="matrix(1.0629921,0,0,-1.0629921,-186.02362,789.27165)"
           id="g10143"
           style="font-style:normal;font-variant:normal;font-weight:normal;font-stretch:normal;letter-spacing:normal;word-spacing:normal;text-anchor:start;fill:none;fill-opacity:1;stroke:#000000;stroke-linecap:butt;stroke-linejoin:miter;stroke-miterlimit:10.43299961;stroke-dasharray:none;stroke-dashoffset:0;stroke-opacity:1"><path
             id="path10145"
             d="M 471.09,421.74 L 471.29,423.04 L 474.68,436.59 C 475.13,438.33 475.23,438.48 477.37,438.48 L 482.15,438.48 C 486.29,438.48 488.93,437.13 488.93,433.7 C 488.93,431.75 487.93,427.47 485.99,425.68 C 483.5,423.43 480.51,423.04 478.32,423.04 L 471.29,423.04 L 471.09,421.74 L 479.56,421.74 C 486.64,421.74 493.56,426.92 493.56,432.5 C 493.56,436.34 490.27,440.02 483.75,440.02 L 467.61,440.02 C 466.66,440.02 466.11,440.02 466.11,439.07 C 466.11,438.48 466.56,438.48 467.56,438.48 C 468.2,438.48 469.1,438.43 469.7,438.38 C 470.5,438.28 470.79,438.13 470.79,437.58 C 470.79,437.38 470.75,437.23 470.59,436.64 L 463.92,409.89 C 463.42,407.94 463.32,407.54 459.39,407.54 C 458.54,407.54 457.99,407.54 457.99,406.6 C 457.99,406 458.59,406 458.74,406 L 471.49,406 C 471.84,406 472.49,406 472.49,407 C 472.49,407.54 472.04,407.54 471.09,407.54 C 469.25,407.54 467.86,407.54 467.86,408.44 C 467.86,408.74 467.96,408.99 468,409.29 L 471.09,421.74 z"
             style="fill:#000000;stroke-width:0" /><path
             id="path10147"
             d="M 499.68,421.18 L 499.68,421.22 L 499.68,421.26 L 499.68,421.3 L 499.68,421.34 L 499.68,421.38 L 499.68,421.42 L 499.68,421.45 L 499.68,421.49 L 499.67,421.52 L 499.67,421.55 L 499.67,421.59 L 499.67,421.62 L 499.66,421.64 L 499.66,421.67 L 499.66,421.7 L 499.65,421.73 L 499.65,421.75 L 499.65,421.77 L 499.63,421.82 L 499.62,421.86 L 499.61,421.9 L 499.59,421.93 L 499.57,421.96 L 499.55,421.99 L 499.52,422.02 L 499.5,422.04 L 499.47,422.06 L 499.43,422.08 L 499.4,422.09 L 499.36,422.1 L 499.31,422.12 L 499.26,422.12 L 499.24,422.13 L 499.21,422.13 L 499.18,422.14 L 499.16,422.14 L 499.13,422.14 L 499.1,422.14 L 499.06,422.14 L 499.03,422.15 L 499,422.15 L 498.96,422.15 L 498.93,422.15 L 498.89,422.15 L 498.85,422.15 L 498.81,422.15 L 498.77,422.15 L 498.73,422.15 L 498.68,422.15 L 498.64,422.15 C 496.4,419.96 493.23,419.92 491.8,419.92 L 491.8,418.67 C 492.64,418.67 494.94,418.67 496.86,419.64 L 496.86,401.86 C 496.86,400.71 496.86,400.25 493.37,400.25 L 492.04,400.25 L 492.04,399 L 504.49,399 L 504.49,400.25 L 503.17,400.25 C 499.68,400.25 499.68,400.71 499.68,401.86 L 499.68,421.18 z"
             style="fill:#000000;stroke-width:0" /></g>      </g>
      <g
         transform="matrix(0.36,0,0,0.36,119.77399,563.70376)"
         id="g10149">
        <g
           style="font-style:normal;font-variant:normal;font-weight:normal;font-stretch:normal;letter-spacing:normal;word-spacing:normal;text-anchor:start;fill:none;fill-opacity:1;stroke:#000000;stroke-linecap:butt;stroke-linejoin:miter;stroke-miterlimit:10.43299961;stroke-dasharray:none;stroke-dashoffset:0;stroke-opacity:1"
           id="g10151"
           transform="matrix(1.0629921,0,0,-1.0629921,-186.02362,789.27165)"
           xml:space="preserve"
           stroke-miterlimit="10.433"
           fill-rule="even-odd"
           font-style="normal"
           font-variant="normal"
           font-weight="normal"
           font-stretch="normal"
           font-size-adjust="none"
           letter-spacing="normal"
           word-spacing="normal"><path
             style="fill:#000000;stroke-width:0"
             d="M 471.09,421.74 L 471.29,423.04 L 474.68,436.59 C 475.13,438.33 475.23,438.48 477.37,438.48 L 482.15,438.48 C 486.29,438.48 488.93,437.13 488.93,433.7 C 488.93,431.75 487.93,427.47 485.99,425.68 C 483.5,423.43 480.51,423.04 478.32,423.04 L 471.29,423.04 L 471.09,421.74 L 479.56,421.74 C 486.64,421.74 493.56,426.92 493.56,432.5 C 493.56,436.34 490.27,440.02 483.75,440.02 L 467.61,440.02 C 466.66,440.02 466.11,440.02 466.11,439.07 C 466.11,438.48 466.56,438.48 467.56,438.48 C 468.2,438.48 469.1,438.43 469.7,438.38 C 470.5,438.28 470.79,438.13 470.79,437.58 C 470.79,437.38 470.75,437.23 470.59,436.64 L 463.92,409.89 C 463.42,407.94 463.32,407.54 459.39,407.54 C 458.54,407.54 457.99,407.54 457.99,406.6 C 457.99,406 458.59,406 458.74,406 L 471.49,406 C 471.84,406 472.49,406 472.49,407 C 472.49,407.54 472.04,407.54 471.09,407.54 C 469.25,407.54 467.86,407.54 467.86,408.44 C 467.86,408.74 467.96,408.99 468,409.29 L 471.09,421.74 z"
             id="path10153" /><path
             style="fill:#000000;stroke-width:0"
             d="M 505.61,405.35 L 504.42,405.35 C 504.32,404.58 503.97,402.52 503.52,402.17 C 503.24,401.96 500.55,401.96 500.07,401.96 L 493.65,401.96 C 497.31,405.21 498.53,406.18 500.62,407.82 C 503.2,409.88 505.61,412.04 505.61,415.36 C 505.61,419.57 501.91,422.15 497.45,422.15 C 493.12,422.15 490.2,419.12 490.2,415.91 C 490.2,414.13 491.7,413.96 492.04,413.96 C 492.88,413.96 493.89,414.55 493.89,415.81 C 493.89,416.43 493.65,417.66 491.84,417.66 C 492.92,420.13 495.29,420.9 496.93,420.9 C 500.41,420.9 502.23,418.18 502.23,415.36 C 502.23,412.32 500.07,409.91 498.95,408.66 L 490.55,400.36 C 490.2,400.05 490.2,399.98 490.2,399 L 504.56,399 L 505.61,405.35 z"
             id="path10155" /></g>      </g>
      <path
         id="path10184"
         d="M 184.85501,837.48123 L 457.10786,523.03861 L 457.10786,523.03861"
         style="fill:none;fill-rule:evenodd;stroke:#000000;stroke-width:1.5;stroke-linecap:butt;stroke-linejoin:miter;marker-end:url(#Arrow1Mend);stroke-miterlimit:4;stroke-dasharray:none;stroke-opacity:1" />
      <path
         style="opacity:0.49302326;fill:none;fill-rule:evenodd;stroke:#ff0046;stroke-width:3.7798264;stroke-linecap:round;stroke-linejoin:round;marker-mid:none;marker-end:none;stroke-miterlimit:4;stroke-dasharray:none;stroke-opacity:1"
         d="M 119.76223,860.00626 C 302.75326,700.57677 302.75326,700.57677 302.75326,700.57677"
         id="path10188" />
      <path
         id="path10190"
         d="M 258.24699,696.00626 C 441.23802,536.57677 441.23802,536.57677 441.23802,536.57677"
         style="opacity:0.49302326;fill:none;fill-rule:evenodd;stroke:#ff0046;stroke-width:3.7798264;stroke-linecap:round;stroke-linejoin:round;marker-mid:none;marker-end:none;stroke-miterlimit:4;stroke-dasharray:none;stroke-opacity:1" />
      <path
         style="fill:none;fill-rule:evenodd;stroke:#000000;stroke-width:1.5;stroke-linecap:butt;stroke-linejoin:miter;marker-end:url(#Arrow1Mend);stroke-miterlimit:4;stroke-dasharray:none;stroke-opacity:1"
         d="M 163.05705,837.90679 L 477.49967,565.65394 L 477.49967,565.65394"
         id="path3325" />
    </g>
    <g
       id="g3356"
       transform="translate(-46.102968,-66.120388)">
      <path
         style="fill:none;fill-rule:evenodd;stroke:#000000;stroke-width:1;stroke-linecap:butt;stroke-linejoin:miter;marker-end:url(#Arrow1Mend);stroke-miterlimit:4;stroke-dasharray:none;stroke-opacity:1"
         d="M 78.38845,298.81698 L 78.38845,108.56041 L 78.38845,108.56041"
         id="path2589" />
      <path
         style="fill:none;fill-rule:evenodd;stroke:#000000;stroke-width:1;stroke-linecap:butt;stroke-linejoin:miter;marker-end:url(#Arrow1Mend);stroke-miterlimit:4;stroke-dasharray:none;stroke-opacity:1"
         d="M 78.763227,298.55897 L 249.12492,298.55897 L 249.12492,298.55897"
         id="path2591" />
      <path
         style="fill:none;fill-rule:evenodd;stroke:#000000;stroke-width:1;stroke-linecap:butt;stroke-linejoin:miter;marker-end:url(#Arrow1Mend);stroke-miterlimit:4;stroke-dasharray:none;stroke-opacity:1"
         d="M 78.571064,298.08011 L 249.41832,234.5331 L 249.41832,234.5331"
         id="path2593" />
      <path
         style="fill:none;fill-rule:evenodd;stroke:#0000ff;stroke-width:1;stroke-linecap:butt;stroke-linejoin:miter;marker-end:none;stroke-miterlimit:4;stroke-dasharray:none;stroke-opacity:1"
         d="M 139.76035,298.13635 L 206.09997,115.35989 L 206.09997,115.35989"
         id="path2597" />
      <path
         style="fill:none;fill-rule:evenodd;stroke:#fd0000;stroke-width:1.5;stroke-linecap:butt;stroke-linejoin:miter;marker-end:url(#Arrow2Mendp);stroke-miterlimit:4;stroke-dasharray:none;stroke-opacity:1"
         d="M 79.80507,296.82436 L 172.2187,205.83932 L 172.2187,205.83932 L 172.2187,205.83932"
         id="path2599" />
      <path
         sodipodi:nodetypes="cc"
         id="path2615"
         d="M 138.9881,299.19134 C 103.88468,320.93652 79.06062,299.28564 79.06062,299.28564"
         style="fill:none;fill-rule:evenodd;stroke:#00a0a0;stroke-width:0.69999999;stroke-linecap:butt;stroke-linejoin:miter;marker-start:url(#Arrow2Mstartf);marker-end:url(#Arrow2Mendq);stroke-miterlimit:4;stroke-dasharray:none;stroke-opacity:1" />
      <g
         word-spacing="normal"
         letter-spacing="normal"
         font-size-adjust="none"
         font-stretch="normal"
         font-weight="normal"
         font-variant="normal"
         font-style="normal"
         fill-rule="even-odd"
         stroke-miterlimit="10.433"
         xml:space="preserve"
         transform="matrix(0.4427362,0,0,-0.4427362,-79.765787,453.2998)"
         id="g2617"
         style="font-style:normal;font-variant:normal;font-weight:normal;font-stretch:normal;letter-spacing:normal;word-spacing:normal;text-anchor:start;fill:none;fill-opacity:1;stroke:#000000;stroke-linecap:butt;stroke-linejoin:miter;stroke-miterlimit:10.43299961;stroke-dasharray:none;stroke-dashoffset:0;stroke-opacity:1"><path
           id="path2619"
           d="M 474.63,436.14 L 474.67,436.3 L 474.71,436.46 L 474.75,436.61 L 474.79,436.75 L 474.84,436.89 L 474.88,437.02 L 474.93,437.14 L 474.99,437.26 L 475.04,437.37 L 475.11,437.47 L 475.18,437.57 L 475.26,437.67 L 475.35,437.75 L 475.45,437.83 L 475.56,437.91 L 475.68,437.98 L 475.82,438.04 L 475.96,438.1 L 476.12,438.16 L 476.3,438.21 L 476.39,438.23 L 476.49,438.25 L 476.59,438.28 L 476.7,438.3 L 476.81,438.31 L 476.93,438.33 L 477.05,438.35 L 477.17,438.36 L 477.3,438.38 L 477.44,438.39 L 477.58,438.4 L 477.72,438.41 L 477.87,438.42 L 478.03,438.43 L 478.19,438.44 L 478.36,438.45 L 478.53,438.46 L 478.71,438.46 L 478.89,438.47 L 479.08,438.47 L 479.28,438.47 L 479.48,438.48 L 479.69,438.48 L 479.91,438.48 C 481.41,438.48 481.8,438.48 481.8,439.43 C 481.8,440.02 481.25,440.02 481.01,440.02 L 467.01,440.02 C 466.66,440.02 466.06,440.02 466.06,439.03 C 466.06,438.48 466.51,438.48 467.46,438.48 C 467.56,438.48 468.5,438.48 469.35,438.38 C 470.25,438.28 470.7,438.23 470.7,437.58 C 470.7,437.38 470.64,437.23 470.5,436.64 L 463.82,409.89 C 463.32,407.94 463.22,407.54 459.29,407.54 C 458.44,407.54 457.94,407.54 457.94,406.55 C 457.94,406 458.39,406 459.29,406 L 482.35,406 C 483.55,406 483.6,406 483.89,406.85 L 487.83,417.61 C 488.03,418.16 488.03,418.25 488.03,418.3 C 488.03,418.5 487.88,418.85 487.43,418.85 C 486.98,418.85 486.93,418.6 486.59,417.8 C 484.89,413.22 482.7,407.54 474.08,407.54 L 469.4,407.54 C 468.7,407.54 468.6,407.54 468.3,407.59 C 467.8,407.64 467.66,407.7 467.66,408.09 C 467.66,408.24 467.66,408.34 467.91,409.24 L 474.63,436.14 z"
           style="fill:#000000;stroke-width:0" /></g>      <path
         sodipodi:nodetypes="cc"
         id="path2621"
         d="M 149.84641,271.76535 C 104.92536,260.77617 80.25173,297.76291 80.25173,297.76291"
         style="fill:none;fill-rule:evenodd;stroke:#00a0a0;stroke-width:0.69999999;stroke-linecap:butt;stroke-linejoin:miter;marker-start:url(#Arrow2Mstarta);marker-end:url(#Arrow2MendN);stroke-miterlimit:4;stroke-dasharray:none;stroke-opacity:1" />
      <g
         id="g2623"
         transform="matrix(0.4165,0,0,0.4165,-22.503217,170.14664)">
        <g
           word-spacing="normal"
           letter-spacing="normal"
           font-size-adjust="none"
           font-stretch="normal"
           font-weight="normal"
           font-variant="normal"
           font-style="normal"
           fill-rule="even-odd"
           stroke-miterlimit="10.433"
           xml:space="preserve"
           transform="matrix(1.0629921,0,0,-1.0629921,-186.02362,789.27165)"
           id="g2625"
           style="font-style:normal;font-variant:normal;font-weight:normal;font-stretch:normal;letter-spacing:normal;word-spacing:normal;text-anchor:start;fill:none;fill-opacity:1;stroke:#000000;stroke-linecap:butt;stroke-linejoin:miter;stroke-miterlimit:10.43299961;stroke-dasharray:none;stroke-dashoffset:0;stroke-opacity:1"><path
             id="path2627"
             d="M 474.63,436.14 L 474.67,436.3 L 474.71,436.46 L 474.75,436.61 L 474.79,436.75 L 474.84,436.89 L 474.88,437.02 L 474.93,437.14 L 474.99,437.26 L 475.04,437.37 L 475.11,437.47 L 475.18,437.57 L 475.26,437.67 L 475.35,437.75 L 475.45,437.83 L 475.56,437.91 L 475.68,437.98 L 475.82,438.04 L 475.96,438.1 L 476.12,438.16 L 476.3,438.21 L 476.39,438.23 L 476.49,438.25 L 476.59,438.28 L 476.7,438.3 L 476.81,438.31 L 476.93,438.33 L 477.05,438.35 L 477.17,438.36 L 477.3,438.38 L 477.44,438.39 L 477.58,438.4 L 477.72,438.41 L 477.87,438.42 L 478.03,438.43 L 478.19,438.44 L 478.36,438.45 L 478.53,438.46 L 478.71,438.46 L 478.89,438.47 L 479.08,438.47 L 479.28,438.47 L 479.48,438.48 L 479.69,438.48 L 479.91,438.48 C 481.41,438.48 481.8,438.48 481.8,439.43 C 481.8,440.02 481.25,440.02 481.01,440.02 L 467.01,440.02 C 466.66,440.02 466.06,440.02 466.06,439.03 C 466.06,438.48 466.51,438.48 467.46,438.48 C 467.56,438.48 468.5,438.48 469.35,438.38 C 470.25,438.28 470.7,438.23 470.7,437.58 C 470.7,437.38 470.64,437.23 470.5,436.64 L 463.82,409.89 C 463.32,407.94 463.22,407.54 459.29,407.54 C 458.44,407.54 457.94,407.54 457.94,406.55 C 457.94,406 458.39,406 459.29,406 L 482.35,406 C 483.55,406 483.6,406 483.89,406.85 L 487.83,417.61 C 488.03,418.16 488.03,418.25 488.03,418.3 C 488.03,418.5 487.88,418.85 487.43,418.85 C 486.98,418.85 486.93,418.6 486.59,417.8 C 484.89,413.22 482.7,407.54 474.08,407.54 L 469.4,407.54 C 468.7,407.54 468.6,407.54 468.3,407.59 C 467.8,407.64 467.66,407.7 467.66,408.09 C 467.66,408.24 467.66,408.34 467.91,409.24 L 474.63,436.14 z"
             style="fill:#000000;stroke-width:0" /><path
             id="path2629"
             d="M 497.42,409.91 L 497.51,409.95 L 497.6,409.99 L 497.68,410.03 L 497.72,410.05 L 497.76,410.07 L 497.8,410.09 L 497.84,410.12 L 497.88,410.14 L 497.91,410.16 L 497.95,410.19 L 497.98,410.21 L 498.01,410.24 L 498.04,410.26 L 498.07,410.29 L 498.1,410.32 L 498.12,410.35 L 498.15,410.39 L 498.17,410.42 L 498.19,410.46 L 498.21,410.49 L 498.23,410.53 L 498.24,410.57 L 498.26,410.62 L 498.27,410.66 L 498.28,410.71 L 498.29,410.76 L 498.29,410.81 L 498.3,410.87 L 498.3,410.93 C 498.3,411.41 497.88,412.04 497.21,412.04 C 496.93,412.04 496.83,411.97 496.48,411.73 L 491.67,408.55 L 492.19,413.79 L 492.26,414.24 C 492.26,414.66 491.88,415.21 491.18,415.21 C 490.48,415.21 490.1,414.69 490.1,414.24 L 490.7,408.55 L 485.92,411.73 C 485.46,412.01 485.29,412.04 485.15,412.04 C 484.49,412.04 484.07,411.41 484.07,410.93 C 484.07,410.3 484.45,410.12 484.94,409.91 L 490.1,407.72 L 484.94,405.48 C 484.45,405.28 484.07,405.1 484.07,404.47 C 484.07,403.98 484.49,403.36 485.15,403.36 C 485.43,403.36 485.53,403.43 485.88,403.67 L 490.66,406.84 L 490.1,401.16 C 490.1,400.71 490.48,400.19 491.18,400.19 C 491.88,400.19 492.26,400.74 492.26,401.16 C 492.26,401.37 491.67,406.71 491.67,406.84 C 492.71,406.18 494.18,405.17 495.96,403.98 C 496.9,403.36 496.97,403.36 497.21,403.36 C 497.88,403.36 498.3,403.98 498.3,404.47 C 498.3,405.14 497.81,405.35 497.6,405.45 C 495.82,406.22 494.04,406.95 492.26,407.68 L 497.42,409.91 z"
             style="fill:#000000;stroke-width:0" /></g>      </g>
      <g
         id="g2631"
         transform="matrix(0.4165,0,0,0.4165,59.766005,58.062308)">
        <g
           word-spacing="normal"
           letter-spacing="normal"
           font-size-adjust="none"
           font-stretch="normal"
           font-weight="normal"
           font-variant="normal"
           font-style="normal"
           fill-rule="even-odd"
           stroke-miterlimit="10.433"
           xml:space="preserve"
           transform="matrix(1.0629921,0,0,-1.0629921,-186.02362,789.27165)"
           id="g2633"
           style="font-style:normal;font-variant:normal;font-weight:normal;font-stretch:normal;letter-spacing:normal;word-spacing:normal;text-anchor:start;fill:none;fill-opacity:1;stroke:#000000;stroke-linecap:butt;stroke-linejoin:miter;stroke-miterlimit:10.43299961;stroke-dasharray:none;stroke-dashoffset:0;stroke-opacity:1"><path
             id="path2635"
             d="M 471.09,421.74 L 471.29,423.04 L 474.68,436.59 C 475.13,438.33 475.23,438.48 477.37,438.48 L 482.15,438.48 C 486.29,438.48 488.93,437.13 488.93,433.7 C 488.93,431.75 487.93,427.47 485.99,425.68 C 483.5,423.43 480.51,423.04 478.32,423.04 L 471.29,423.04 L 471.09,421.74 L 479.56,421.74 C 486.64,421.74 493.56,426.92 493.56,432.5 C 493.56,436.34 490.27,440.02 483.75,440.02 L 467.61,440.02 C 466.66,440.02 466.11,440.02 466.11,439.07 C 466.11,438.48 466.56,438.48 467.56,438.48 C 468.2,438.48 469.1,438.43 469.7,438.38 C 470.5,438.28 470.79,438.13 470.79,437.58 C 470.79,437.38 470.75,437.23 470.59,436.64 L 463.92,409.89 C 463.42,407.94 463.32,407.54 459.39,407.54 C 458.54,407.54 457.99,407.54 457.99,406.6 C 457.99,406 458.59,406 458.74,406 L 471.49,406 C 471.84,406 472.49,406 472.49,407 C 472.49,407.54 472.04,407.54 471.09,407.54 C 469.25,407.54 467.86,407.54 467.86,408.44 C 467.86,408.74 467.96,408.99 468,409.29 L 471.09,421.74 z"
             style="fill:#000000;stroke-width:0" /></g>      </g>
      <path
         style="fill:none;fill-rule:evenodd;stroke:#646464;stroke-width:0.89999998;stroke-linecap:butt;stroke-linejoin:miter;stroke-miterlimit:4;stroke-dasharray:none;stroke-opacity:1"
         d="M 102.618,231.2297 L 169.78518,207.1463"
         id="path2665" />
      <path
         style="fill:none;fill-rule:evenodd;stroke:#646464;stroke-width:0.89999998;stroke-linecap:butt;stroke-linejoin:miter;stroke-miterlimit:4;stroke-dasharray:none;stroke-opacity:1"
         d="M 78.977586,204.08459 L 173.99702,205.00568"
         id="path3593" />
      <g
         transform="matrix(0.5,0,0,0.5,-65.232706,57.643217)"
         id="g3820">
        <g
           style="font-style:normal;font-variant:normal;font-weight:normal;font-stretch:normal;letter-spacing:normal;word-spacing:normal;text-anchor:start;fill:none;fill-opacity:1;stroke:#000000;stroke-linecap:butt;stroke-linejoin:miter;stroke-miterlimit:10.43299961;stroke-dasharray:none;stroke-dashoffset:0;stroke-opacity:1"
           id="g3822"
           transform="matrix(1.0629921,0,0,-1.0629921,-186.02362,789.27165)"
           xml:space="preserve"
           stroke-miterlimit="10.433"
           fill-rule="even-odd"
           font-style="normal"
           font-variant="normal"
           font-weight="normal"
           font-stretch="normal"
           font-size-adjust="none"
           letter-spacing="normal"
           word-spacing="normal"><path
             style="fill:#000000;stroke-width:0"
             d="M 466.26,425.93 L 470.95,425.93 C 471.94,425.93 472.44,425.93 472.44,426.92 C 472.44,427.47 471.94,427.47 471.04,427.47 L 466.66,427.47 C 468.45,434.54 468.7,435.54 468.7,435.84 C 468.7,436.68 468.11,437.18 467.26,437.18 C 467.11,437.18 465.71,437.13 465.27,435.39 L 463.32,427.47 L 458.64,427.47 C 457.64,427.47 457.14,427.47 457.14,426.52 C 457.14,425.93 457.54,425.93 458.54,425.93 L 462.93,425.93 C 459.34,411.78 459.14,410.93 459.14,410.04 C 459.14,407.34 461.03,405.45 463.72,405.45 C 468.8,405.45 471.64,412.73 471.64,413.12 C 471.64,413.62 471.24,413.62 471.04,413.62 C 470.59,413.62 470.55,413.47 470.3,412.93 C 468.16,407.74 465.52,406.55 463.82,406.55 C 462.77,406.55 462.28,407.2 462.28,408.84 C 462.28,410.04 462.38,410.38 462.57,411.23 L 466.26,425.93 z"
             id="path3824" /><path
             style="fill:#000000;stroke-width:0"
             d="M 484.15,440.49 L 484.17,440.56 L 484.2,440.62 L 484.22,440.68 L 484.25,440.74 L 484.27,440.8 L 484.3,440.86 L 484.32,440.92 L 484.34,440.98 L 484.36,441.04 L 484.37,441.11 L 484.38,441.14 L 484.39,441.18 L 484.4,441.21 L 484.4,441.25 L 484.41,441.28 L 484.41,441.32 L 484.42,441.36 L 484.42,441.4 L 484.42,441.44 L 484.42,441.49 L 484.43,441.53 L 484.43,441.57 C 484.43,442.66 483.48,443.49 482.37,443.49 C 480.97,443.49 480.62,442.34 480.48,441.89 L 475.85,426.79 C 475.81,426.68 475.67,426.27 475.67,426.2 C 475.67,425.78 476.75,425.43 477.04,425.43 C 477.31,425.43 477.42,425.61 477.56,425.95 L 484.15,440.49 z"
             id="path3826" /></g>      </g>
      <g
         id="g4284"
         transform="matrix(0.5,0,0,0.5,-84.847602,32.177226)">
        <g
           word-spacing="normal"
           letter-spacing="normal"
           font-size-adjust="none"
           font-stretch="normal"
           font-weight="normal"
           font-variant="normal"
           font-style="normal"
           fill-rule="even-odd"
           stroke-miterlimit="10.433"
           xml:space="preserve"
           transform="matrix(1.0629921,0,0,-1.0629921,-186.02362,789.27165)"
           id="g4286"
           style="font-style:normal;font-variant:normal;font-weight:normal;font-stretch:normal;letter-spacing:normal;word-spacing:normal;text-anchor:start;fill:none;fill-opacity:1;stroke:#000000;stroke-linecap:butt;stroke-linejoin:miter;stroke-miterlimit:10.43299961;stroke-dasharray:none;stroke-dashoffset:0;stroke-opacity:1"><path
             id="path4288"
             d="M 466.26,425.93 L 470.95,425.93 C 471.94,425.93 472.44,425.93 472.44,426.92 C 472.44,427.47 471.94,427.47 471.04,427.47 L 466.66,427.47 C 468.45,434.54 468.7,435.54 468.7,435.84 C 468.7,436.68 468.11,437.18 467.26,437.18 C 467.11,437.18 465.71,437.13 465.27,435.39 L 463.32,427.47 L 458.64,427.47 C 457.64,427.47 457.14,427.47 457.14,426.52 C 457.14,425.93 457.54,425.93 458.54,425.93 L 462.93,425.93 C 459.34,411.78 459.14,410.93 459.14,410.04 C 459.14,407.34 461.03,405.45 463.72,405.45 C 468.8,405.45 471.64,412.73 471.64,413.12 C 471.64,413.62 471.24,413.62 471.04,413.62 C 470.59,413.62 470.55,413.47 470.3,412.93 C 468.16,407.74 465.52,406.55 463.82,406.55 C 462.77,406.55 462.28,407.2 462.28,408.84 C 462.28,410.04 462.38,410.38 462.57,411.23 L 466.26,425.93 z"
             style="fill:#000000;stroke-width:0" /></g>      </g>
      <path
         id="path4315"
         d="M 78.38845,298.81698 L 78.38845,108.56041 L 78.38845,108.56041"
         style="fill:none;fill-rule:evenodd;stroke:#000000;stroke-width:1;stroke-linecap:butt;stroke-linejoin:miter;marker-end:url(#Arrow1Mend);stroke-miterlimit:4;stroke-dasharray:none;stroke-opacity:1" />
      <path
         id="path3354"
         d="M 78.729795,298.16739 L 142.27682,127.32014 L 142.27682,127.32014"
         style="fill:none;fill-rule:evenodd;stroke:#000000;stroke-width:1;stroke-linecap:butt;stroke-linejoin:miter;marker-end:url(#Arrow1Mend);stroke-miterlimit:4;stroke-dasharray:none;stroke-opacity:1" />
    </g>
    <path
       id="path4789"
       d="M 365.49265,413.69186 L 319.97702,396.71378"
       style="fill:none;fill-rule:evenodd;stroke:#646464;stroke-width:0.87594098;stroke-linecap:butt;stroke-linejoin:miter;stroke-miterlimit:4;stroke-dasharray:none;stroke-opacity:1" />
    <g
       id="g6231"
       transform="translate(101.30963,-44.330318)"
       inkscape:export-filename="/home/dhoshu/study/phys/notes/gravity/tm/ex4-17_2.png"
       inkscape:export-xdpi="200"
       inkscape:export-ydpi="200">
      <path
         id="path2481"
         d="M 381.63258,250.07165 L 626.75151,250.07165 L 626.75151,250.07165"
         style="fill:none;fill-rule:evenodd;stroke:#000000;stroke-width:1.29999995;stroke-linecap:butt;stroke-linejoin:miter;marker-end:url(#Arrow1Mend);stroke-miterlimit:4;stroke-dasharray:none;stroke-opacity:1" />
      <path
         style="fill:none;fill-rule:evenodd;stroke:#000000;stroke-width:1.29999995;stroke-linecap:butt;stroke-linejoin:miter;marker-end:url(#Arrow1Mend);stroke-miterlimit:4;stroke-dasharray:none;stroke-opacity:1"
         d="M 480.42916,340.87555 L 480.42916,90.373839 L 480.42916,90.373839"
         id="path2529" />
      <rect
         y="90.191887"
         x="434.3656"
         height="250.01276"
         width="45.456863"
         id="rect3388"
         style="opacity:0.3;fill:#b4a096;fill-opacity:1;fill-rule:nonzero;stroke:none;stroke-width:1.79999995;stroke-linecap:round;stroke-linejoin:round;stroke-miterlimit:4;stroke-dasharray:none;stroke-dashoffset:0;stroke-opacity:1" />
      <path
         style="fill:none;fill-rule:evenodd;stroke:#000000;stroke-width:1.29999995;stroke-linecap:butt;stroke-linejoin:miter;marker-end:url(#Arrow1Mend);stroke-miterlimit:4;stroke-dasharray:none;stroke-opacity:1"
         d="M 392.60532,218.03999 L 622.94178,301.87559 L 622.94178,301.87559"
         id="path4518" />
      <path
         id="path4522"
         d="M 511.91865,335.82171 L 426.24202,100.42708 L 426.24202,100.42708"
         style="fill:none;fill-rule:evenodd;stroke:#000000;stroke-width:1.29999995;stroke-linecap:butt;stroke-linejoin:miter;marker-end:url(#Arrow1Mend);stroke-miterlimit:4;stroke-dasharray:none;stroke-opacity:1" />
      <path
         id="path2513"
         d="M 434.17782,340.82772 L 434.55578,89.272699"
         style="fill:none;fill-rule:evenodd;stroke:#646464;stroke-width:1;stroke-linecap:butt;stroke-linejoin:miter;stroke-miterlimit:4;stroke-dasharray:none;stroke-opacity:1" />
      <path
         id="path2487"
         d="M 478.27747,248.47359 L 436.11616,130.46936 L 436.11616,130.46936 L 436.11616,130.46936"
         style="opacity:0.7;fill:none;fill-rule:evenodd;stroke:#fd0000;stroke-width:3.33552361;stroke-linecap:round;stroke-linejoin:miter;marker-end:url(#Arrow2Sendv);stroke-miterlimit:4;stroke-dasharray:none;stroke-opacity:1" />
      <path
         style="fill:none;fill-rule:evenodd;stroke:#00a0a0;stroke-width:1.04499996;stroke-linecap:butt;stroke-linejoin:miter;marker-start:url(#Arrow2Mstarta);marker-end:url(#Arrow2MendN);stroke-miterlimit:4;stroke-dasharray:none;stroke-opacity:1"
         d="M 434.75336,127.3102 C 398.59309,223.74072 478.37278,248.92469 478.37278,248.92469"
         id="path2495"
         sodipodi:nodetypes="cc" />
      <g
         id="g5204"
         transform="matrix(0.4304672,0,0,0.4304672,267.72735,40.54402)">
        <g
           word-spacing="normal"
           letter-spacing="normal"
           font-size-adjust="none"
           font-stretch="normal"
           font-weight="normal"
           font-variant="normal"
           font-style="normal"
           fill-rule="even-odd"
           stroke-miterlimit="10.433"
           xml:space="preserve"
           transform="matrix(1.0629921,0,0,-1.0629921,-186.02362,789.27165)"
           id="g5206"
           style="font-style:normal;font-variant:normal;font-weight:normal;font-stretch:normal;letter-spacing:normal;word-spacing:normal;text-anchor:start;fill:none;fill-opacity:1;stroke:#000000;stroke-linecap:butt;stroke-linejoin:miter;stroke-miterlimit:10.43299961;stroke-dasharray:none;stroke-dashoffset:0;stroke-opacity:1"><path
             id="path5208"
             d="M 466.26,425.93 L 470.95,425.93 C 471.94,425.93 472.44,425.93 472.44,426.92 C 472.44,427.47 471.94,427.47 471.04,427.47 L 466.66,427.47 C 468.45,434.54 468.7,435.54 468.7,435.84 C 468.7,436.68 468.11,437.18 467.26,437.18 C 467.11,437.18 465.71,437.13 465.27,435.39 L 463.32,427.47 L 458.64,427.47 C 457.64,427.47 457.14,427.47 457.14,426.52 C 457.14,425.93 457.54,425.93 458.54,425.93 L 462.93,425.93 C 459.34,411.78 459.14,410.93 459.14,410.04 C 459.14,407.34 461.03,405.45 463.72,405.45 C 468.8,405.45 471.64,412.73 471.64,413.12 C 471.64,413.62 471.24,413.62 471.04,413.62 C 470.59,413.62 470.55,413.47 470.3,412.93 C 468.16,407.74 465.52,406.55 463.82,406.55 C 462.77,406.55 462.28,407.2 462.28,408.84 C 462.28,410.04 462.38,410.38 462.57,411.23 L 466.26,425.93 z"
             style="fill:#000000;stroke-width:0" /><path
             id="path5210"
             d="M 491.99,410.12 L 491.99,410.83 L 491.97,411.51 L 491.94,412.17 L 491.9,412.81 L 491.84,413.43 L 491.76,414.02 L 491.67,414.6 L 491.56,415.16 L 491.44,415.71 L 491.29,416.24 L 491.12,416.75 L 490.93,417.25 L 490.72,417.74 L 490.48,418.22 L 490.22,418.69 L 490.08,418.93 L 489.93,419.16 C 488.86,420.76 486.69,422.15 483.9,422.15 L 483.9,421.18 C 485.79,421.18 487.6,420.03 488.23,418 C 488.79,416.12 488.82,413.61 488.82,410.58 C 488.82,408 488.82,405.41 488.37,403.22 C 487.67,400.05 485.3,399.28 483.9,399.28 L 483.9,399.28 C 482.3,399.28 480.17,400.22 479.47,403.08 C 478.98,405.14 478.98,408 478.98,410.58 C 478.98,413.12 478.98,415.77 479.51,417.69 C 480.24,420.45 482.47,421.18 483.9,421.18 L 483.9,422.15 C 475.81,422.15 475.81,412.63 475.81,410.12 C 475.81,407.61 475.81,398.3 483.9,398.3 C 491.99,398.3 491.99,407.61 491.99,410.12 z"
             style="fill:#000000;stroke-width:0" /></g>      </g>
      <g
         id="g5489"
         transform="matrix(0.4735139,0,0,0.4735139,272.79285,-74.302007)">
        <g
           id="g5491"
           transform="matrix(1.0629921,0,0,-1.0629921,-186.02362,789.27165)"
           xml:space="preserve"
           stroke-miterlimit="10.433"
           fill-rule="even-odd"
           font-style="normal"
           font-variant="normal"
           font-weight="normal"
           font-stretch="normal"
           font-size-adjust="none"
           letter-spacing="normal"
           word-spacing="normal"
           style="font-style:normal;font-variant:normal;font-weight:normal;font-stretch:normal;letter-spacing:normal;word-spacing:normal;text-anchor:start;fill:none;fill-opacity:1;stroke:#000000;stroke-linecap:butt;stroke-linejoin:miter;stroke-miterlimit:10.43299961;stroke-dasharray:none;stroke-dashoffset:0;stroke-opacity:1"><path
             d="M 466.26,425.93 L 470.95,425.93 C 471.94,425.93 472.44,425.93 472.44,426.92 C 472.44,427.47 471.94,427.47 471.04,427.47 L 466.66,427.47 C 468.45,434.54 468.7,435.54 468.7,435.84 C 468.7,436.68 468.11,437.18 467.26,437.18 C 467.11,437.18 465.71,437.13 465.27,435.39 L 463.32,427.47 L 458.64,427.47 C 457.64,427.47 457.14,427.47 457.14,426.52 C 457.14,425.93 457.54,425.93 458.54,425.93 L 462.93,425.93 C 459.34,411.78 459.14,410.93 459.14,410.04 C 459.14,407.34 461.03,405.45 463.72,405.45 C 468.8,405.45 471.64,412.73 471.64,413.12 C 471.64,413.62 471.24,413.62 471.04,413.62 C 470.59,413.62 470.55,413.47 470.3,412.93 C 468.16,407.74 465.52,406.55 463.82,406.55 C 462.77,406.55 462.28,407.2 462.28,408.84 C 462.28,410.04 462.38,410.38 462.57,411.23 L 466.26,425.93 z"
             id="path5493"
             style="fill:#000000;stroke-width:0" /></g>      </g>
      <g
         id="g5775"
         transform="matrix(0.4735139,0,0,0.4735139,337.76722,-86.674294)">
        <g
           word-spacing="normal"
           letter-spacing="normal"
           font-size-adjust="none"
           font-stretch="normal"
           font-weight="normal"
           font-variant="normal"
           font-style="normal"
           fill-rule="even-odd"
           stroke-miterlimit="10.433"
           xml:space="preserve"
           transform="matrix(1.0629921,0,0,-1.0629921,-186.02362,789.27165)"
           id="g5777"
           style="font-style:normal;font-variant:normal;font-weight:normal;font-stretch:normal;letter-spacing:normal;word-spacing:normal;text-anchor:start;fill:none;fill-opacity:1;stroke:#000000;stroke-linecap:butt;stroke-linejoin:miter;stroke-miterlimit:10.43299961;stroke-dasharray:none;stroke-dashoffset:0;stroke-opacity:1"><path
             id="path5779"
             d="M 466.26,425.93 L 470.95,425.93 C 471.94,425.93 472.44,425.93 472.44,426.92 C 472.44,427.47 471.94,427.47 471.04,427.47 L 466.66,427.47 C 468.45,434.54 468.7,435.54 468.7,435.84 C 468.7,436.68 468.11,437.18 467.26,437.18 C 467.11,437.18 465.71,437.13 465.27,435.39 L 463.32,427.47 L 458.64,427.47 C 457.64,427.47 457.14,427.47 457.14,426.52 C 457.14,425.93 457.54,425.93 458.54,425.93 L 462.93,425.93 C 459.34,411.78 459.14,410.93 459.14,410.04 C 459.14,407.34 461.03,405.45 463.72,405.45 C 468.8,405.45 471.64,412.73 471.64,413.12 C 471.64,413.62 471.24,413.62 471.04,413.62 C 470.59,413.62 470.55,413.47 470.3,412.93 C 468.16,407.74 465.52,406.55 463.82,406.55 C 462.77,406.55 462.28,407.2 462.28,408.84 C 462.28,410.04 462.38,410.38 462.57,411.23 L 466.26,425.93 z"
             style="fill:#000000;stroke-width:0" /><path
             id="path5781"
             d="M 484.15,440.49 L 484.17,440.56 L 484.2,440.62 L 484.22,440.68 L 484.25,440.74 L 484.27,440.8 L 484.3,440.86 L 484.32,440.92 L 484.34,440.98 L 484.36,441.04 L 484.37,441.11 L 484.38,441.14 L 484.39,441.18 L 484.4,441.21 L 484.4,441.25 L 484.41,441.28 L 484.41,441.32 L 484.42,441.36 L 484.42,441.4 L 484.42,441.44 L 484.42,441.49 L 484.43,441.53 L 484.43,441.57 C 484.43,442.66 483.48,443.49 482.37,443.49 C 480.97,443.49 480.62,442.34 480.48,441.89 L 475.85,426.79 C 475.81,426.68 475.67,426.27 475.67,426.2 C 475.67,425.78 476.75,425.43 477.04,425.43 C 477.31,425.43 477.42,425.61 477.56,425.95 L 484.15,440.49 z"
             style="fill:#000000;stroke-width:0" /></g>      </g>
      <g
         transform="matrix(0.4304672,0,0,0.4304672,358.60046,-20.966748)"
         id="g6071">
        <g
           style="font-style:normal;font-variant:normal;font-weight:normal;font-stretch:normal;letter-spacing:normal;word-spacing:normal;text-anchor:start;fill:none;fill-opacity:1;stroke:#000000;stroke-linecap:butt;stroke-linejoin:miter;stroke-miterlimit:10.43299961;stroke-dasharray:none;stroke-dashoffset:0;stroke-opacity:1"
           id="g6073"
           transform="matrix(1.0629921,0,0,-1.0629921,-186.02362,789.27165)"
           xml:space="preserve"
           stroke-miterlimit="10.433"
           fill-rule="even-odd"
           font-style="normal"
           font-variant="normal"
           font-weight="normal"
           font-stretch="normal"
           font-size-adjust="none"
           letter-spacing="normal"
           word-spacing="normal"><path
             style="fill:#000000;stroke-width:0"
             d="M 466.26,425.93 L 470.95,425.93 C 471.94,425.93 472.44,425.93 472.44,426.92 C 472.44,427.47 471.94,427.47 471.04,427.47 L 466.66,427.47 C 468.45,434.54 468.7,435.54 468.7,435.84 C 468.7,436.68 468.11,437.18 467.26,437.18 C 467.11,437.18 465.71,437.13 465.27,435.39 L 463.32,427.47 L 458.64,427.47 C 457.64,427.47 457.14,427.47 457.14,426.52 C 457.14,425.93 457.54,425.93 458.54,425.93 L 462.93,425.93 C 459.34,411.78 459.14,410.93 459.14,410.04 C 459.14,407.34 461.03,405.45 463.72,405.45 C 468.8,405.45 471.64,412.73 471.64,413.12 C 471.64,413.62 471.24,413.62 471.04,413.62 C 470.59,413.62 470.55,413.47 470.3,412.93 C 468.16,407.74 465.52,406.55 463.82,406.55 C 462.77,406.55 462.28,407.2 462.28,408.84 C 462.28,410.04 462.38,410.38 462.57,411.23 L 466.26,425.93 z"
             id="path6075" /><path
             style="fill:#000000;stroke-width:0"
             d="M 484.15,440.49 L 484.17,440.56 L 484.2,440.62 L 484.22,440.68 L 484.25,440.74 L 484.27,440.8 L 484.3,440.86 L 484.32,440.92 L 484.34,440.98 L 484.36,441.04 L 484.37,441.11 L 484.38,441.14 L 484.39,441.18 L 484.4,441.21 L 484.4,441.25 L 484.41,441.28 L 484.41,441.32 L 484.42,441.36 L 484.42,441.4 L 484.42,441.44 L 484.42,441.49 L 484.43,441.53 L 484.43,441.57 C 484.43,442.66 483.48,443.49 482.37,443.49 C 480.97,443.49 480.62,442.34 480.48,441.89 L 475.85,426.79 C 475.81,426.68 475.67,426.27 475.67,426.2 C 475.67,425.78 476.75,425.43 477.04,425.43 C 477.31,425.43 477.42,425.61 477.56,425.95 L 484.15,440.49 z"
             id="path6077" /><path
             style="fill:#000000;stroke-width:0"
             d="M 491.99,405.12 L 491.99,405.83 L 491.97,406.51 L 491.94,407.17 L 491.9,407.81 L 491.84,408.43 L 491.76,409.02 L 491.67,409.6 L 491.56,410.16 L 491.44,410.71 L 491.29,411.24 L 491.12,411.75 L 490.93,412.25 L 490.72,412.74 L 490.48,413.22 L 490.22,413.69 L 490.08,413.93 L 489.93,414.16 C 488.86,415.76 486.69,417.15 483.9,417.15 L 483.9,416.18 C 485.79,416.18 487.6,415.03 488.23,413 C 488.79,411.12 488.82,408.61 488.82,405.58 C 488.82,403 488.82,400.41 488.37,398.22 C 487.67,395.05 485.3,394.28 483.9,394.28 L 483.9,394.28 C 482.3,394.28 480.17,395.22 479.47,398.08 C 478.98,400.14 478.98,403 478.98,405.58 C 478.98,408.12 478.98,410.77 479.51,412.69 C 480.24,415.45 482.47,416.18 483.9,416.18 L 483.9,417.15 C 475.81,417.15 475.81,407.63 475.81,405.12 C 475.81,402.61 475.81,393.3 483.9,393.3 C 491.99,393.3 491.99,402.61 491.99,405.12 z"
             id="path6079" /></g>      </g>
      <path
         style="fill:none;fill-rule:evenodd;stroke:#00a0a0;stroke-width:1;stroke-linecap:butt;stroke-linejoin:miter;marker-start:url(#Arrow2Mstartf);marker-end:url(#Arrow2Mendq);stroke-miterlimit:4;stroke-dasharray:none;stroke-opacity:1"
         d="M 478.61664,124.736 C 459.72798,103.67938 436.48276,124.63015 436.48276,124.63015"
         id="path2489"
         sodipodi:nodetypes="cc" />
      <g
         transform="matrix(0.37485,0,0,0.37485,340.42978,-23.166106)"
         id="g2497">
        <g
           style="font-style:normal;font-variant:normal;font-weight:normal;font-stretch:normal;letter-spacing:normal;word-spacing:normal;text-anchor:start;fill:none;fill-opacity:1;stroke:#000000;stroke-linecap:butt;stroke-linejoin:miter;stroke-miterlimit:10.43299961;stroke-dasharray:none;stroke-dashoffset:0;stroke-opacity:1"
           id="g2499"
           transform="matrix(1.0629921,0,0,-1.0629921,-186.02362,789.27165)"
           xml:space="preserve"
           stroke-miterlimit="10.433"
           fill-rule="even-odd"
           font-style="normal"
           font-variant="normal"
           font-weight="normal"
           font-stretch="normal"
           font-size-adjust="none"
           letter-spacing="normal"
           word-spacing="normal"><path
             style="fill:#000000;stroke-width:0"
             d="M 474.63,436.14 L 474.67,436.3 L 474.71,436.46 L 474.75,436.61 L 474.79,436.75 L 474.84,436.89 L 474.88,437.02 L 474.93,437.14 L 474.99,437.26 L 475.04,437.37 L 475.11,437.47 L 475.18,437.57 L 475.26,437.67 L 475.35,437.75 L 475.45,437.83 L 475.56,437.91 L 475.68,437.98 L 475.82,438.04 L 475.96,438.1 L 476.12,438.16 L 476.3,438.21 L 476.39,438.23 L 476.49,438.25 L 476.59,438.28 L 476.7,438.3 L 476.81,438.31 L 476.93,438.33 L 477.05,438.35 L 477.17,438.36 L 477.3,438.38 L 477.44,438.39 L 477.58,438.4 L 477.72,438.41 L 477.87,438.42 L 478.03,438.43 L 478.19,438.44 L 478.36,438.45 L 478.53,438.46 L 478.71,438.46 L 478.89,438.47 L 479.08,438.47 L 479.28,438.47 L 479.48,438.48 L 479.69,438.48 L 479.91,438.48 C 481.41,438.48 481.8,438.48 481.8,439.43 C 481.8,440.02 481.25,440.02 481.01,440.02 L 467.01,440.02 C 466.66,440.02 466.06,440.02 466.06,439.03 C 466.06,438.48 466.51,438.48 467.46,438.48 C 467.56,438.48 468.5,438.48 469.35,438.38 C 470.25,438.28 470.7,438.23 470.7,437.58 C 470.7,437.38 470.64,437.23 470.5,436.64 L 463.82,409.89 C 463.32,407.94 463.22,407.54 459.29,407.54 C 458.44,407.54 457.94,407.54 457.94,406.55 C 457.94,406 458.39,406 459.29,406 L 482.35,406 C 483.55,406 483.6,406 483.89,406.85 L 487.83,417.61 C 488.03,418.16 488.03,418.25 488.03,418.3 C 488.03,418.5 487.88,418.85 487.43,418.85 C 486.98,418.85 486.93,418.6 486.59,417.8 C 484.89,413.22 482.7,407.54 474.08,407.54 L 469.4,407.54 C 468.7,407.54 468.6,407.54 468.3,407.59 C 467.8,407.64 467.66,407.7 467.66,408.09 C 467.66,408.24 467.66,408.34 467.91,409.24 L 474.63,436.14 z"
             id="path2501" /><path
             style="fill:#000000;stroke-width:0"
             d="M 497.42,409.91 L 497.51,409.95 L 497.6,409.99 L 497.68,410.03 L 497.72,410.05 L 497.76,410.07 L 497.8,410.09 L 497.84,410.12 L 497.88,410.14 L 497.91,410.16 L 497.95,410.19 L 497.98,410.21 L 498.01,410.24 L 498.04,410.26 L 498.07,410.29 L 498.1,410.32 L 498.12,410.35 L 498.15,410.39 L 498.17,410.42 L 498.19,410.46 L 498.21,410.49 L 498.23,410.53 L 498.24,410.57 L 498.26,410.62 L 498.27,410.66 L 498.28,410.71 L 498.29,410.76 L 498.29,410.81 L 498.3,410.87 L 498.3,410.93 C 498.3,411.41 497.88,412.04 497.21,412.04 C 496.93,412.04 496.83,411.97 496.48,411.73 L 491.67,408.55 L 492.19,413.79 L 492.26,414.24 C 492.26,414.66 491.88,415.21 491.18,415.21 C 490.48,415.21 490.1,414.69 490.1,414.24 L 490.7,408.55 L 485.92,411.73 C 485.46,412.01 485.29,412.04 485.15,412.04 C 484.49,412.04 484.07,411.41 484.07,410.93 C 484.07,410.3 484.45,410.12 484.94,409.91 L 490.1,407.72 L 484.94,405.48 C 484.45,405.28 484.07,405.1 484.07,404.47 C 484.07,403.98 484.49,403.36 485.15,403.36 C 485.43,403.36 485.53,403.43 485.88,403.67 L 490.66,406.84 L 490.1,401.16 C 490.1,400.71 490.48,400.19 491.18,400.19 C 491.88,400.19 492.26,400.74 492.26,401.16 C 492.26,401.37 491.67,406.71 491.67,406.84 C 492.71,406.18 494.18,405.17 495.96,403.98 C 496.9,403.36 496.97,403.36 497.21,403.36 C 497.88,403.36 498.3,403.98 498.3,404.47 C 498.3,405.14 497.81,405.35 497.6,405.45 C 495.82,406.22 494.04,406.95 492.26,407.68 L 497.42,409.91 z"
             id="path2503" /></g>      </g>
      <path
         style="fill:none;fill-rule:evenodd;stroke:#646464;stroke-width:0.85569173;stroke-linecap:butt;stroke-linejoin:miter;stroke-miterlimit:4;stroke-dasharray:none;stroke-opacity:1"
         d="M 479.8777,126.3574 L 435.82559,125.95024"
         id="path6229" />
    </g>
    <g
       id="g6357"
       transform="translate(-250,-5.7142873)"
       inkscape:export-filename="/home/dhoshu/study/phys/notes/gravity/tm/ex4-17_1.png"
       inkscape:export-xdpi="200"
       inkscape:export-ydpi="200">
      <g
         style="font-style:normal;font-variant:normal;font-weight:normal;font-stretch:normal;letter-spacing:normal;word-spacing:normal;text-anchor:start;fill:none;fill-opacity:1;stroke:#000000;stroke-linecap:butt;stroke-linejoin:miter;stroke-miterlimit:10.43299961;stroke-dasharray:none;stroke-dashoffset:0;stroke-opacity:1"
         id="g2491"
         transform="matrix(0.3984626,0,0,-0.3984626,409.88574,398.20612)"
         xml:space="preserve"
         stroke-miterlimit="10.433"
         fill-rule="even-odd"
         font-style="normal"
         font-variant="normal"
         font-weight="normal"
         font-stretch="normal"
         font-size-adjust="none"
         letter-spacing="normal"
         word-spacing="normal"><path
           style="fill:#000000;stroke-width:0"
           d="M 474.63,436.14 L 474.67,436.3 L 474.71,436.46 L 474.75,436.61 L 474.79,436.75 L 474.84,436.89 L 474.88,437.02 L 474.93,437.14 L 474.99,437.26 L 475.04,437.37 L 475.11,437.47 L 475.18,437.57 L 475.26,437.67 L 475.35,437.75 L 475.45,437.83 L 475.56,437.91 L 475.68,437.98 L 475.82,438.04 L 475.96,438.1 L 476.12,438.16 L 476.3,438.21 L 476.39,438.23 L 476.49,438.25 L 476.59,438.28 L 476.7,438.3 L 476.81,438.31 L 476.93,438.33 L 477.05,438.35 L 477.17,438.36 L 477.3,438.38 L 477.44,438.39 L 477.58,438.4 L 477.72,438.41 L 477.87,438.42 L 478.03,438.43 L 478.19,438.44 L 478.36,438.45 L 478.53,438.46 L 478.71,438.46 L 478.89,438.47 L 479.08,438.47 L 479.28,438.47 L 479.48,438.48 L 479.69,438.48 L 479.91,438.48 C 481.41,438.48 481.8,438.48 481.8,439.43 C 481.8,440.02 481.25,440.02 481.01,440.02 L 467.01,440.02 C 466.66,440.02 466.06,440.02 466.06,439.03 C 466.06,438.48 466.51,438.48 467.46,438.48 C 467.56,438.48 468.5,438.48 469.35,438.38 C 470.25,438.28 470.7,438.23 470.7,437.58 C 470.7,437.38 470.64,437.23 470.5,436.64 L 463.82,409.89 C 463.32,407.94 463.22,407.54 459.29,407.54 C 458.44,407.54 457.94,407.54 457.94,406.55 C 457.94,406 458.39,406 459.29,406 L 482.35,406 C 483.55,406 483.6,406 483.89,406.85 L 487.83,417.61 C 488.03,418.16 488.03,418.25 488.03,418.3 C 488.03,418.5 487.88,418.85 487.43,418.85 C 486.98,418.85 486.93,418.6 486.59,417.8 C 484.89,413.22 482.7,407.54 474.08,407.54 L 469.4,407.54 C 468.7,407.54 468.6,407.54 468.3,407.59 C 467.8,407.64 467.66,407.7 467.66,408.09 C 467.66,408.24 467.66,408.34 467.91,409.24 L 474.63,436.14 z"
           id="path2493" /></g>      <path
         style="fill:none;fill-rule:evenodd;stroke:#000000;stroke-width:1.29999995;stroke-linecap:butt;stroke-linejoin:miter;marker-end:url(#Arrow1Mend);stroke-miterlimit:4;stroke-dasharray:none;stroke-opacity:1"
         d="M 475.00712,209.10355 L 720.12605,209.10355 L 720.12605,209.10355"
         id="path6265" />
      <path
         id="path6267"
         d="M 573.8037,299.90746 L 573.8037,49.40574 L 573.8037,49.40574"
         style="fill:none;fill-rule:evenodd;stroke:#000000;stroke-width:1.29999995;stroke-linecap:butt;stroke-linejoin:miter;marker-end:url(#Arrow1Mend);stroke-miterlimit:4;stroke-dasharray:none;stroke-opacity:1" />
      <rect
         transform="matrix(1,0,-0.3420189,0.9396931,0,0)"
         style="opacity:0.3;fill:#b4a096;fill-opacity:1;fill-rule:nonzero;stroke:none;stroke-width:1.79999995;stroke-linecap:round;stroke-linejoin:round;stroke-miterlimit:4;stroke-dasharray:none;stroke-dashoffset:0;stroke-opacity:1"
         id="rect6269"
         width="43.630047"
         height="255.36557"
         x="606.05969"
         y="64.673149" />
      <path
         id="path6271"
         d="M 475.85331,245.10938 L 706.18977,161.27377 L 706.18977,161.27377"
         style="fill:none;fill-rule:evenodd;stroke:#000000;stroke-width:1.29999995;stroke-linecap:butt;stroke-linejoin:miter;marker-end:url(#Arrow1Mend);stroke-miterlimit:4;stroke-dasharray:none;stroke-opacity:1" />
      <path
         style="fill:none;fill-rule:evenodd;stroke:#000000;stroke-width:1.29999995;stroke-linecap:butt;stroke-linejoin:miter;marker-end:url(#Arrow1Mend);stroke-miterlimit:4;stroke-dasharray:none;stroke-opacity:1"
         d="M 541.01117,299.86839 L 626.6878,64.473766 L 626.6878,64.473766"
         id="path6273" />
      <path
         style="fill:none;fill-rule:evenodd;stroke:#646464;stroke-width:1;stroke-linecap:butt;stroke-linejoin:miter;stroke-miterlimit:4;stroke-dasharray:none;stroke-opacity:1"
         d="M 496.12146,298.77567 L 582.51352,62.520539"
         id="path6275" />
      <path
         style="opacity:0.7;fill:none;fill-rule:evenodd;stroke:#fd0000;stroke-width:3.26481056;stroke-linecap:round;stroke-linejoin:miter;marker-end:url(#Arrow2Sendv);stroke-miterlimit:4;stroke-dasharray:none;stroke-opacity:1"
         d="M 571.82908,208.12284 L 572.74191,89.644584 L 572.74191,89.644584 L 572.74191,89.644584"
         id="path6277" />
      <g
         transform="matrix(0.4304672,0,0,0.4304672,421.71104,-65.578918)"
         id="g6281">
        <g
           style="font-style:normal;font-variant:normal;font-weight:normal;font-stretch:normal;letter-spacing:normal;word-spacing:normal;text-anchor:start;fill:none;fill-opacity:1;stroke:#000000;stroke-linecap:butt;stroke-linejoin:miter;stroke-miterlimit:10.43299961;stroke-dasharray:none;stroke-dashoffset:0;stroke-opacity:1"
           id="g6283"
           transform="matrix(1.0629921,0,0,-1.0629921,-186.02362,789.27165)"
           xml:space="preserve"
           stroke-miterlimit="10.433"
           fill-rule="even-odd"
           font-style="normal"
           font-variant="normal"
           font-weight="normal"
           font-stretch="normal"
           font-size-adjust="none"
           letter-spacing="normal"
           word-spacing="normal"><path
             style="fill:#000000;stroke-width:0"
             d="M 466.26,425.93 L 470.95,425.93 C 471.94,425.93 472.44,425.93 472.44,426.92 C 472.44,427.47 471.94,427.47 471.04,427.47 L 466.66,427.47 C 468.45,434.54 468.7,435.54 468.7,435.84 C 468.7,436.68 468.11,437.18 467.26,437.18 C 467.11,437.18 465.71,437.13 465.27,435.39 L 463.32,427.47 L 458.64,427.47 C 457.64,427.47 457.14,427.47 457.14,426.52 C 457.14,425.93 457.54,425.93 458.54,425.93 L 462.93,425.93 C 459.34,411.78 459.14,410.93 459.14,410.04 C 459.14,407.34 461.03,405.45 463.72,405.45 C 468.8,405.45 471.64,412.73 471.64,413.12 C 471.64,413.62 471.24,413.62 471.04,413.62 C 470.59,413.62 470.55,413.47 470.3,412.93 C 468.16,407.74 465.52,406.55 463.82,406.55 C 462.77,406.55 462.28,407.2 462.28,408.84 C 462.28,410.04 462.38,410.38 462.57,411.23 L 466.26,425.93 z"
             id="path6285" /><path
             style="fill:#000000;stroke-width:0"
             d="M 491.99,410.12 L 491.99,410.83 L 491.97,411.51 L 491.94,412.17 L 491.9,412.81 L 491.84,413.43 L 491.76,414.02 L 491.67,414.6 L 491.56,415.16 L 491.44,415.71 L 491.29,416.24 L 491.12,416.75 L 490.93,417.25 L 490.72,417.74 L 490.48,418.22 L 490.22,418.69 L 490.08,418.93 L 489.93,419.16 C 488.86,420.76 486.69,422.15 483.9,422.15 L 483.9,421.18 C 485.79,421.18 487.6,420.03 488.23,418 C 488.79,416.12 488.82,413.61 488.82,410.58 C 488.82,408 488.82,405.41 488.37,403.22 C 487.67,400.05 485.3,399.28 483.9,399.28 L 483.9,399.28 C 482.3,399.28 480.17,400.22 479.47,403.08 C 478.98,405.14 478.98,408 478.98,410.58 C 478.98,413.12 478.98,415.77 479.51,417.69 C 480.24,420.45 482.47,421.18 483.9,421.18 L 483.9,422.15 C 475.81,422.15 475.81,412.63 475.81,410.12 C 475.81,407.61 475.81,398.3 483.9,398.3 C 491.99,398.3 491.99,407.61 491.99,410.12 z"
             id="path6287" /></g>      </g>
      <g
         transform="matrix(0.4735139,0,0,0.4735139,428.79685,-128.90716)"
         id="g6289">
        <g
           style="font-style:normal;font-variant:normal;font-weight:normal;font-stretch:normal;letter-spacing:normal;word-spacing:normal;text-anchor:start;fill:none;fill-opacity:1;stroke:#000000;stroke-linecap:butt;stroke-linejoin:miter;stroke-miterlimit:10.43299961;stroke-dasharray:none;stroke-dashoffset:0;stroke-opacity:1"
           word-spacing="normal"
           letter-spacing="normal"
           font-size-adjust="none"
           font-stretch="normal"
           font-weight="normal"
           font-variant="normal"
           font-style="normal"
           fill-rule="even-odd"
           stroke-miterlimit="10.433"
           xml:space="preserve"
           transform="matrix(1.0629921,0,0,-1.0629921,-186.02362,789.27165)"
           id="g6291"><path
             style="fill:#000000;stroke-width:0"
             id="path6293"
             d="M 466.26,425.93 L 470.95,425.93 C 471.94,425.93 472.44,425.93 472.44,426.92 C 472.44,427.47 471.94,427.47 471.04,427.47 L 466.66,427.47 C 468.45,434.54 468.7,435.54 468.7,435.84 C 468.7,436.68 468.11,437.18 467.26,437.18 C 467.11,437.18 465.71,437.13 465.27,435.39 L 463.32,427.47 L 458.64,427.47 C 457.64,427.47 457.14,427.47 457.14,426.52 C 457.14,425.93 457.54,425.93 458.54,425.93 L 462.93,425.93 C 459.34,411.78 459.14,410.93 459.14,410.04 C 459.14,407.34 461.03,405.45 463.72,405.45 C 468.8,405.45 471.64,412.73 471.64,413.12 C 471.64,413.62 471.24,413.62 471.04,413.62 C 470.59,413.62 470.55,413.47 470.3,412.93 C 468.16,407.74 465.52,406.55 463.82,406.55 C 462.77,406.55 462.28,407.2 462.28,408.84 C 462.28,410.04 462.38,410.38 462.57,411.23 L 466.26,425.93 z" /></g>      </g>
      <g
         transform="matrix(0.4735139,0,0,0.4735139,491.75092,-117.54086)"
         id="g6295">
        <g
           style="font-style:normal;font-variant:normal;font-weight:normal;font-stretch:normal;letter-spacing:normal;word-spacing:normal;text-anchor:start;fill:none;fill-opacity:1;stroke:#000000;stroke-linecap:butt;stroke-linejoin:miter;stroke-miterlimit:10.43299961;stroke-dasharray:none;stroke-dashoffset:0;stroke-opacity:1"
           id="g6297"
           transform="matrix(1.0629921,0,0,-1.0629921,-186.02362,789.27165)"
           xml:space="preserve"
           stroke-miterlimit="10.433"
           fill-rule="even-odd"
           font-style="normal"
           font-variant="normal"
           font-weight="normal"
           font-stretch="normal"
           font-size-adjust="none"
           letter-spacing="normal"
           word-spacing="normal"><path
             style="fill:#000000;stroke-width:0"
             d="M 466.26,425.93 L 470.95,425.93 C 471.94,425.93 472.44,425.93 472.44,426.92 C 472.44,427.47 471.94,427.47 471.04,427.47 L 466.66,427.47 C 468.45,434.54 468.7,435.54 468.7,435.84 C 468.7,436.68 468.11,437.18 467.26,437.18 C 467.11,437.18 465.71,437.13 465.27,435.39 L 463.32,427.47 L 458.64,427.47 C 457.64,427.47 457.14,427.47 457.14,426.52 C 457.14,425.93 457.54,425.93 458.54,425.93 L 462.93,425.93 C 459.34,411.78 459.14,410.93 459.14,410.04 C 459.14,407.34 461.03,405.45 463.72,405.45 C 468.8,405.45 471.64,412.73 471.64,413.12 C 471.64,413.62 471.24,413.62 471.04,413.62 C 470.59,413.62 470.55,413.47 470.3,412.93 C 468.16,407.74 465.52,406.55 463.82,406.55 C 462.77,406.55 462.28,407.2 462.28,408.84 C 462.28,410.04 462.38,410.38 462.57,411.23 L 466.26,425.93 z"
             id="path6299" /><path
             style="fill:#000000;stroke-width:0"
             d="M 484.15,440.49 L 484.17,440.56 L 484.2,440.62 L 484.22,440.68 L 484.25,440.74 L 484.27,440.8 L 484.3,440.86 L 484.32,440.92 L 484.34,440.98 L 484.36,441.04 L 484.37,441.11 L 484.38,441.14 L 484.39,441.18 L 484.4,441.21 L 484.4,441.25 L 484.41,441.28 L 484.41,441.32 L 484.42,441.36 L 484.42,441.4 L 484.42,441.44 L 484.42,441.49 L 484.43,441.53 L 484.43,441.57 C 484.43,442.66 483.48,443.49 482.37,443.49 C 480.97,443.49 480.62,442.34 480.48,441.89 L 475.85,426.79 C 475.81,426.68 475.67,426.27 475.67,426.2 C 475.67,425.78 476.75,425.43 477.04,425.43 C 477.31,425.43 477.42,425.61 477.56,425.95 L 484.15,440.49 z"
             id="path6301" /></g>      </g>
      <path
         sodipodi:nodetypes="cc"
         id="path6313"
         d="M 617.95312,210.91433 C 599.06446,231.97095 575.81924,211.02018 575.81924,211.02018"
         style="fill:none;fill-rule:evenodd;stroke:#00a0a0;stroke-width:1;stroke-linecap:butt;stroke-linejoin:miter;marker-start:url(#Arrow2Mstartf);marker-end:url(#Arrow2Mendq);stroke-miterlimit:4;stroke-dasharray:none;stroke-opacity:1" />
      <path
         id="path6323"
         d="M 618.7091,85.389301 L 574.65699,84.982141"
         style="fill:none;fill-rule:evenodd;stroke:#646464;stroke-width:0.85569173;stroke-linecap:butt;stroke-linejoin:miter;stroke-miterlimit:4;stroke-dasharray:none;stroke-opacity:1" />
      <path
         style="fill:none;fill-rule:evenodd;stroke:#646464;stroke-width:1.0441941;stroke-linecap:butt;stroke-linejoin:miter;stroke-miterlimit:4;stroke-dasharray:none;stroke-opacity:1"
         d="M 618.79706,208.63785 L 619.01572,86.487426"
         id="path6355" />
    </g>
  </g>
</svg>
